<svg viewBox="0 0 28 21" xmlns="http://www.w3.org/2000/svg"><path fill="#126" d="M1 19h26V.5H1v14z"/><path fill="#fff" d="M1 12.5h26V7.25H1v7z M11.25 1v19h5.5V1h-7.25z"/><path fill="#fff" d="m2 0 26 18-2 2L0 2Z"/><path fill="#fff" d="M26 0 0 18l2 2L28 2Z"/><path fill="#c12" d="M1 11.8h26V8H1v7zM12 1v19h4V1H8.7zM1 1.5l8.5 5.8H8.2L1 2.3ZM27 1.5l-8.3 5.8h1l7.3-5Z"/><path fill="#c12" d="m27 18.5-8.5-6h1l7.5 5.3ZM1 18.5l8.5-6h-1L1 17.8Z"/><rect width="27" height="19" x=".5" y=".5" fill="none" stroke="#666" rx="1.8"/></svg>