<svg xmlns="http://www.w3.org/2000/svg" viewBox="0 0 20 20"><path fill="#00C3FF" d="M1.4 10A8.5 8.5 0 0 1 10 1.5a8.5 8.5 0 0 1 8.5 8.5 8.5 8.5 0 0 1-8.5 8.5A8.5 8.5 0 0 1 1.4 10zm0 0"/><path fill="#00AAF0" d="M13.5 15A8.5 8.5 0 0 1 5 6.3c0-1.4.4-2.8 1-4A8.5 8.5 0 0 0 1.4 10a8.5 8.5 0 0 0 8.5 8.5c3.3 0 6.2-1.9 7.6-4.6a8.5 8.5 0 0 1-4 1zm0 0"/><path d="M10 19.8a.4.4 0 0 0 .4-.4v-.5a9 9 0 0 0 8.5-8.5h.5a.4.4 0 1 0 0-.8h-.5A9 9 0 0 0 10.4 1V.6a.4.4 0 1 0-.9 0V1A9 9 0 0 0 1 9.6H.6a.4.4 0 1 0 0 .8H1a9 9 0 0 0 8.5 8.5v.5a.4.4 0 0 0 .5.4zm.4-1.8V15h3.1l-.4.9c-.8 1.3-1.7 2-2.7 2.2zm0-4v-3.6h4A13 13 0 0 1 14 14h-3.5zm0-4.4V5.9h3.5c.3 1.1.5 2.3.6 3.7h-4.1zm0-4.5V1.9c1 .2 2 1 2.7 2.3.2.2.3.6.4.9h-3.1zm-.9-3.2v3.2H6.4l.4-1C7.6 3 8.5 2.2 9.5 2zm0 4v3.7h-4c0-1.3.2-2.6.6-3.7h3.4zm0 4.5V14H6.1a13 13 0 0 1-.6-3.6h4zm0 4.5V18c-1-.1-2-1-2.7-2.2a9 9 0 0 1-.4-1h3.1zm3.3 2.6a7 7 0 0 0 1-1.3l.7-1.3h1.9a8.1 8.1 0 0 1-3.6 2.6zM17 14h-2.3c.4-1 .6-2.3.6-3.6h2.8A8 8 0 0 1 17 14zm-1.7-4.4a14 14 0 0 0-.6-3.7H17a8 8 0 0 1 1 3.7h-2.7zM16.4 5h-2a10.8 10.8 0 0 0-.6-1.4c-.3-.5-.6-1-1-1.3a8.1 8.1 0 0 1 3.6 2.7zM7.1 2.4l-1 1.3-.6 1.4h-2a8 8 0 0 1 3.6-2.7zM3 5.9h2.2a14 14 0 0 0-.6 3.7H2a8 8 0 0 1 1-3.7zm1.6 4.5c0 1.3.3 2.5.6 3.6H3a8 8 0 0 1-1.1-3.6h2.7zm-1 4.5h1.9A10.2 10.2 0 0 0 7 17.5 8 8 0 0 1 3.5 15zm0 0"/></svg>