<?xml version="1.0" encoding="UTF-8"?>
<!DOCTYPE svg PUBLIC "-//W3C//DTD SVG 1.1//EN" "http://www.w3.org/Graphics/SVG/1.1/DTD/svg11.dtd">
<!-- Creator: CorelDRAW -->
<svg xmlns="http://www.w3.org/2000/svg" xml:space="preserve" width="660px" height="680px" version="1.1" style="shape-rendering:geometricPrecision; text-rendering:geometricPrecision; image-rendering:optimizeQuality; fill-rule:evenodd; clip-rule:evenodd"
viewBox="0 0 660 680"
 xmlns:xlink="http://www.w3.org/1999/xlink"
 xmlns:xodm="http://www.corel.com/coreldraw/odm/2003">
 <defs>
  <style type="text/css">
   <![CDATA[
    .str0 {stroke:#3498DB;stroke-width:5;stroke-miterlimit:22.9256}
    .fil2 {fill:none;fill-rule:nonzero}
    .fil0 {fill:black;fill-rule:nonzero}
    .fil1 {fill:#3498DB;fill-rule:nonzero}
    .fil3 {fill:white;fill-rule:nonzero}
   ]]>
  </style>
 </defs>
 <g id="Слой_x0020_1">
  <metadata id="CorelCorpID_0Corel-Layer"/>
  <path class="fil0" d="M8.77 360.03l0 28.12 1.01 17.07c4.22,37.21 15.51,73.41 33.14,106.48l22.09 35.15c5.02,8.03 14.06,18.08 21.09,26.11l31.14 30.13c39.63,33.25 86.94,56.42 137.58,67.27 77.33,17.07 156.67,5.02 221.95,-31.13l29.13 -17.08 22.09 -17.07c24.11,-19.08 51.22,-49.21 66.29,-75.32l3.01 -5.03c21.99,-36.73 35.79,-77.93 40.21,-120.5l1 -17.08 0 -28.12 -1 -16.07c-2.95,-33.83 -12.19,-66.95 -27.14,-97.43 -12.33,-26.61 -28.99,-51.06 -49.2,-72.29l-20.09 -20.09 -5.02 -4.01c-48.62,-43.56 -109.84,-70.67 -174.75,-77.35l-4.02 -1.01c-6.03,-1 -8.04,4.02 -3.01,5.02l27.11 4.02c0,4.02 -4.02,14.06 -3.01,18.08 0,2.01 1,2.01 3.01,3.01l23.1 5.02c0,6.03 -5.02,12.05 -5.02,19.08l24.1 8.04 -4.01 10.04c-1.01,3.02 -3.02,6.03 -2.01,10.05l3.01 0 7.03 -14.06 2.01 -8.04c-7.03,-3.01 -17.08,-8.03 -24.11,-9.04l5.02 -14.06c25.16,7.2 49.24,18.05 71.3,32.13 -3.01,5.02 -10.04,13.06 -10.04,18.08l15.07 10.04 5.02 4.02 -23.1 27.12 -4.02 -3.02 -25.11 -16.06 -4.01 -3.02 7.03 -13.05 11.04 7.03c3.02,1 10.05,7.03 11.05,3.01 1.01,-3.01 -4.02,-5.02 -6.02,-7.03l-13.06 -7.03 5.02 -11.05c3.01,-4.02 6.03,-8.03 -1,-9.04 -2.01,5.02 -18.08,31.14 -19.09,35.15l-7.03 -3.01c-16.06,-8.03 -34.14,-13.06 -52.22,-18.08l3.01 -14.06 12.05 3.02c3.02,1 9.04,3.01 12.06,2l0 -4.01 -12.06 -4.02c-11.04,-3.01 -23.09,-5.02 -35.15,-6.03 -4.01,0 -2.01,-1 -6.02,1.01l0 3.01c3.01,2.01 8.03,2.01 12.05,2.01l12.05 2.01 -4.02 16.07c0,5.02 3.02,4.02 13.06,6.02 4.02,1.01 25.11,7.03 29.13,10.05l-14.07 31.13 -12.05 -4.02c0,-3.01 6.03,-15.06 5.02,-17.07 0,-2.01 -2,-3.01 -4.01,-2.01l-4.02 11.05c-1,4.02 -3.01,7.03 -3.01,12.05 5.02,2.01 12.05,3.01 16.07,6.03l-5.03 13.05c-6.02,-2.01 -25.1,-8.03 -31.13,-8.03 -2.01,0 -4.02,4.02 2.01,5.02 17.07,4.02 33.14,10.04 48.21,18.08l7.03 4.02c-2.01,4.01 -10.05,12.05 -11.05,17.07 3.01,2.01 3.01,3.01 6.03,0l9.03 -13.06c5.03,-7.03 3.02,-6.02 -11.04,-14.06l-15.07 -7.03 3.02 -6.02 19.08 -44.19 9.04 4.01c8.03,3.02 19.08,8.04 25.1,13.06l-6.02 10.04c-3.02,4.02 -7.03,9.04 0,9.04l11.05 -16.07 13.05 10.04c3.01,1.01 2.01,2.01 6.03,2.01l12.05 -14.06 25.11 23.1 5.02 6.03 -23.1 18.08c-6.03,5.02 -10.04,6.02 -6.03,11.04l9.04 12.06 -8.03 5.02c-5.02,3.01 -10.04,5.02 -7.03,9.04 20.05,29.28 30.95,63.92 31.14,99.42 1.01,1.01 2.01,2.01 3.01,1.01 3.02,-1.01 2.01,-5.02 2.01,-8.04l-1 -10.04 36.15 -3.01 1.01 5.02 0 15.06c1,2.01 5.02,3.02 5.02,-3.01l0 -17.07 -2.01 -6.03 -15.06 2.01c-4.02,0 -5.02,0 -5.02,-3.01l-6.03 -27.12 -1.01 -4.02 11.05 -3.01c2.01,-1.01 9.04,-1.01 8.04,-5.02 -1.01,-5.03 -14.06,2.01 -20.09,3.01l-4.02 -10.04c-3.01,-8.04 -7.03,-18.08 -12.05,-25.11l-3.02 0.01c-2,3.01 -3.01,0 1.01,8.03 9.04,16.07 17.07,38.17 19.08,56.25l2.01 11.04 -15.07 1.01c-2,-25.11 -13.05,-54.23 -27.11,-75.33l-2.01 -4.01 22.09 -14.06 7.03 -5.03c3.02,2.01 8.04,11.05 10.05,15.07 3.01,5.02 7.03,2.01 4.01,-4.02l-9.03 -14.06 14.06 -9.04 2 -2.01c0,-3.01 -2,-5.02 -6.02,-2l-4.02 3.01 -26.11 17.07 -9.04 -12.05 44.19 -35.15c3.01,5.02 24.1,32.14 25.11,38.16l-14.06 7.03c-6.03,3.02 -1.01,6.03 2.01,13.06l5.02 10.04 -18.08 8.04c0,3.01 0,4.01 3.01,4.01l17.08 -7.03c4.01,7.03 11.04,31.14 12.05,40.18l-11.05 2.01c-3.01,0 -7.03,0 -8.03,3.01 -2.01,6.03 10.04,2.01 13.05,1 10.05,-2 13.06,0 12.06,-8.03 -4.95,-21.31 -12.77,-41.98 -23.1,-61.26 8.03,-7.03 20.08,-7.03 16.07,-14.06l-12.06 -19.08c4.02,-1.01 7.03,-3.02 9.04,-5.03 10.05,-7.03 11.05,-3.01 -1,-19.08l-10.04 -12.05 -2.01 0 -2.01 4.01 16.07 20.09 -12.06 8.03 -8.03 -10.04c-9.04,-12.05 -7.03,-11.04 -17.07,-4.01l-7.03 6.02 -8.04 -8.03 -16.07 -15.07 -8.03 -7.03c14.06,-16.07 15.06,-14.06 8.03,-19.08l-16.07 -12.05 9.04 -12.05c3.02,-6.03 0,-6.03 -1,-7.04l-14.06 -8.03c-27.46,-15.52 -57.4,-26.42 -88.39,-32.14l3.02 -15.07 13.05 3.02c32.14,8.03 73.32,24.1 101.44,44.19l8.03 6.02c4.02,3.01 29.13,22.1 31.14,26.11l-10.05 10.05c-2.01,0 -9.04,-8.04 -11.04,-9.04 -7.03,-5.02 -8.04,-9.04 -13.06,-7.03 0,5.02 1,4.02 4.02,6.02 4.01,4.02 14.06,11.05 16.07,15.07 -2.01,0 -5.03,4.02 -7.03,6.02 -5.03,5.03 -9.04,7.04 -4.02,10.05 4.02,-1.01 23.1,-22.1 30.13,-27.12l7.03 8.04c6.02,5.02 19.08,23.1 25.11,30.13 6.02,7.03 11.04,15.06 15.06,23.1l3.02 4.01c-2.01,3.02 -9.04,6.03 -13.06,8.04 -2.01,1 -4.02,1 -4.02,4.01 0,3.02 10.04,17.08 11.05,23.1l-16.07 6.03c-2.01,2.01 -2.01,3.01 -2.01,5.02 6.03,15.07 11.05,29.13 15.07,45.2l4.01 25.1 -19.08 2.01c-3.01,1.01 -2.01,4.02 1.01,4.02 2,1 17.07,-1.01 20.08,-1.01l3.02 -1c2,-5.02 -5.03,-35.15 -6.03,-40.17 -2.01,-6.03 -9.04,-30.13 -12.05,-35.15l14.06 -5.02c4.02,6.02 12.05,32.13 13.05,38.16 1.01,4.02 2.01,10.04 4.02,13.06 3.01,0 4.02,0 4.02,-2.01 -5.41,-26.71 -14.92,-52.51 -28.12,-76.33l14.06 -7.03c16.07,29.13 28.12,65.28 32.14,98.43l1.01 8.03 -11.05 1c-3.01,0 -7.03,0 -9.04,2.01l0 2.01c2.01,2.01 1,2.01 4.02,2.01l16.07 -2.01c2.01,7.03 2.01,19.08 2.01,27.12l0 13.06 -2.01 13.05 -32.14 -3.01c-4.02,0 -9.04,-2.01 -9.04,2.01 13.58,2.52 27.48,4.6 41.2,6.03l-2.01 13.06c-6.03,42.18 -22.1,83.36 -47.21,119.51l-17.07 23.1c-6.03,-3.01 -12.05,-11.04 -18.08,-11.04 -3.01,4.01 1.01,5.02 5.02,8.03 3.02,2.01 6.03,6.03 9.04,7.03 -1,3.01 -5.02,6.03 -7.03,8.04l-4.01 4.01 -3.02 4.02 -15.06 14.06 -2.01 2.01 -15.07 11.05 -17.07 13.05c-12.05,-19.08 -10.04,-18.07 -20.09,-12.05l-15.06 9.04 -17.08 -31.13c3.02,-1.01 17.08,-9.04 19.09,-12.06l0 -3.01 -10.05 -13.05 19.09 -15.07 9.04 -8.03c2,-1.01 9.03,-8.04 3.01,-8.04 -2.01,0 -3.01,2.01 -5.02,3.01l-9.04 8.04 -23.1 17.07c0,5.02 7.03,13.06 10.04,17.08l-13.05 8.03 -29.13 14.06c0,3.01 1,5.02 5.02,4.02l19.08 -9.04 12.06 22.09c8.03,16.07 4.01,15.07 25.1,3.02l7.03 -4.02 8.04 12.05 -23.1 14.06 -25.11 12.05 -14.06 -33.14c-2.01,-6.03 -4.02,-4.02 -9.04,-2.01l-17.07 6.03 -11.05 -33.14c10.04,-3.02 32.14,-11.05 41.18,-17.08 0,-4.01 -4.02,-9.04 -6.03,-13.05 -5.02,-9.04 -5.02,-10.05 -9.04,-7.03 0,4.01 2.01,6.02 3.02,9.03l5.02 8.04 -9.04 5.02c-17.07,7.03 -32.14,12.05 -50.22,16.07 -5.02,1 -4.01,6.03 3.02,5.02l17.07 -4.02c2.01,4.02 9.04,32.14 12.05,37.16 5.02,0 21.09,-5.02 25.11,-8.03l14.06 32.14c-33.09,12.5 -68.12,19.65 -103.47,21.06 -7.03,1.01 -14.06,2.01 -20.09,1.01l-11.04 0.01 -9.04 -1 0 -5.02c2.01,-18.08 6.03,-14.06 -13.06,-17.08 -8.03,-1 -33.14,-5.02 -40.17,-8.03 0,-5.02 3.01,-12.05 5.02,-17.07l5.02 -16.07 27.12 6.02c14.06,2.01 31.14,4.02 45.2,3.02l9.04 0c6.02,0 33.14,-2.01 36.15,-4.02 1.01,6.02 7.03,31.13 6.03,35.15 -19.09,2.01 -29.13,4.02 -50.22,4.02l0 -15.07 9.04 0c7.03,0 20.09,1.01 17.07,-5.02 -1,-2.01 -9.04,0 -14.06,0 -22.09,1 -44.19,-1 -66.28,-5.02 -3.02,0 -3.02,1 -4.02,3.01 2.01,3.02 6.03,3.02 11.05,4.02 16.07,2.01 25.11,3.01 42.18,3.01 0,6.03 -2.01,16.07 0,20.09 20.09,3.01 59.25,-4.02 79.34,-9.04 3.01,-1 12.05,-2.01 10.04,-7.03 -1,-2.01 -5.02,0 -7.03,0l-21.09 5.02c-2.01,-6.02 -6.02,-33.14 -8.03,-37.16 -1.01,-3.01 -12.05,0 -16.07,1.01l-33.14 2 -16.07 0c-15.07,-1 -38.17,-5.02 -52.23,-9.03 -4.01,-1.01 -7.03,-3.02 -9.04,2l-9.04 28.12c-4.01,12.06 -6.02,11.05 10.05,15.07l35.15 7.03 8.03 1 -1 14.07 -3.01 0c-19.09,-2.01 -43.19,-7.04 -61.27,-13.06l-19.08 -6.03 4.02 -10.04c14.06,-32.14 15.06,-26.11 0,-33.14l-12.05 -5.02 7.03 -13.06c3.01,1 20.08,10.04 23.1,9.04 2,-2.01 5.02,-14.06 8.03,-18.08l12.05 5.02c12.05,4.02 24.11,7.03 37.16,9.04 13.06,2.01 17.08,3.01 17.08,-4.02 0,-8.03 4.01,-29.12 3.01,-34.14l32.14 0 4.01 34.14 -17.07 1.01 0 -12.05c0,-5.03 2.01,-8.04 -4.02,-8.04 -2.01,4.02 -1,7.03 -1,13.06 0,2.01 -2.01,12.05 2.01,12.05l12.05 0c16.07,0 14.06,1 12.05,-16.07 -1,-7.03 0,-5.02 11.05,-6.03 14.06,-3.01 27.12,-6.02 40.17,-11.04 2.01,-1.01 7.03,-1.01 7.03,-4.02 1.01,-3.01 -6.02,-14.06 -6.02,-18.08l6.02 -2.01 22.1 -12.05 15.06 -11.05 4.02 6.03 5.02 6.03c-4.02,6.02 -15.06,7.03 -15.06,13.05 3.01,2.01 2,2.01 5.02,0l10.04 -6.02c5.02,-4.02 9.04,-5.03 5.02,-10.05 -2.01,-3.01 -9.04,-9.04 -10.04,-12.05 16.07,-14.06 14.06,-11.05 4.02,-21.09l-5.03 -5.02 4.02 -4.02 3.01 -4.02c13.06,-14.06 22.1,-31.13 29.13,-48.2l8.03 -23.1 14.07 3.01c0,7.03 -8.04,15.07 0,18.08l20.08 5.02c1.01,-2.01 3.02,-3.01 0,-5.02l-18.08 -5.02c3.02,-7.03 6.03,-21.09 7.03,-30.13l49.22 5.02c6.02,0 7.03,-1.01 7.03,3.01 -2.01,16.07 -7.03,20.09 2.01,22.1l15.06 2.01c-1,7.03 -6.03,18.07 -6.03,24.1 2.01,2.01 4.02,3.01 5.03,-1.01l6.02 -21.09 15.07 2.01c-2.01,8.04 -11.05,42.18 -15.07,47.21l-33.14 -13.06 7.03 -18.08c0,-2.01 1,-3.01 -1,-5.02 -4.02,0 -4.02,0 -5.03,4.02 -6.02,19.08 -17.07,41.17 -29.12,59.25l-13.06 18.08 -12.05 -9.04c0,-2.01 1,-2.01 2.01,-3.01l20.09 -30.13c6.02,-12.05 12.05,-23.1 17.07,-37.16 1,-4.02 8.03,-25.11 7.03,-28.12 -2.01,-2.01 -12.05,-3.02 -14.06,-3.02 -7.03,-2 -12.05,-5.02 -12.05,2.01 3.01,2.01 15.06,4.02 20.08,4.02 0,5.02 -3.01,14.06 -5.02,19.08l-6.02 17.08 -8.04 -3.02c-33.14,-12.05 -29.12,-15.06 -34.15,-4.01 -3.01,6.02 -8.03,12.05 -4.01,14.06l3.01 0 7.03 -15.07 34.15 13.06c-9.04,17.07 -13.06,27.11 -25.11,42.18l-7.03 8.03c-3.01,-4.01 -24.11,-18.07 -27.12,-22.09l7.03 -10.04 9.04 6.02c3.01,2.01 5.02,4.02 9.04,4.02l9.04 -13.06 2.01 -3.01c2.01,-3.01 2.01,-3.01 0,-6.03 -3.02,0 -3.02,0 -5.02,3.02l-8.04 13.05 -8.03 -5.02c-8.04,-5.02 -8.04,-8.03 -13.06,-1 -11.05,18.07 -15.06,9.03 6.03,26.11l-11.05 11.05c-2.01,3.01 -2.01,3.01 -1.01,6.02l4.02 0c1.01,-3.01 10.04,-11.05 12.05,-14.06l28.12 22.1c-1,4.01 -22.09,23.1 -27.11,27.11 -8.04,7.03 -11.05,2.01 6.02,21.09l-20.08 14.06c0,7.04 4.01,4.02 8.03,1.01l15.07 -10.04 11.04 12.05c3.02,5.02 6.03,0 13.06,-6.03l5.02 -4.02c2.01,-2 9.04,-7.03 9.04,-9.03 -1,-3.02 -12.05,-13.06 -14.06,-15.07l8.04 -8.03c9.03,-9.04 17.07,-21.1 23.09,-27.12l9.04 6.02c2.01,1.01 7.03,6.03 9.04,3.02 3.02,-5.02 -12.05,-9.04 -15.06,-14.06l11.05 -18.08c1,-2.01 2,-6.03 -2.01,-5.02 -9.95,17.8 -22.13,34.39 -36.16,49.2 -3.01,3.01 -14.06,13.06 -14.06,15.07l14.06 14.06 -11.05 9.04 -6.02 5.02 -23.1 -27.12c25.03,-20.38 46.16,-45.31 62.25,-73.31l8.04 -17.07 17.07 7.03 16.07 6.03 -7.03 14.06c-3.01,7.03 -8.03,12.05 0,12.05 5.02,-8.03 10.04,-17.07 13.06,-26.11l11.04 -30.13 4.02 -16.07c2.01,-8.04 5.02,-10.04 -4.02,-11.05 -10.04,-2.01 -25.1,-4.02 -34.14,-7.03l3.01 -20.09 1 -22.09 40.19 0c2.01,-1.01 2.01,-4.02 -1,-5.02l-32.14 0c-3.02,0 -11.05,-1.01 -12.05,1l-1.01 22.1 -27.12 -2.01 -9.04 -1.01 0 -11.04c0,-4.02 2.01,-9.04 -2,-9.04 -4.02,0 -3.02,5.02 -3.02,9.04 -1,12.05 0,10.04 -5.02,10.04 -3.01,0 -12.05,-2.01 -14.06,-1.01 -3.01,0 -3.01,5.03 -3.01,7.03l-1.01 9.04c-4.01,0 -11.04,-1 -15.06,-3.01l2.01 -21.09 -1.01 -23.1c-4.01,-31.13 -11.04,-52.22 -30.13,-78.34l-11.04 -14.06 -5.03 -6.02 10.05 -10.05 7.03 7.03c3.01,2.01 3.01,6.03 8.03,4.02 1.01,-3.01 -2.01,-6.03 -4.02,-8.03l-20.08 -19.09 10.04 -12.05c1.01,3.01 5.02,5.02 7.03,7.03 2.01,1.01 5.02,6.03 7.03,6.03 2.01,0 14.06,-13.06 16.07,-15.07 4.02,-3.01 0,-8.03 -5.02,-2.01l-11.05 10.05 -7.03 -7.03c-8.03,-7.03 -9.04,-5.02 -12.05,-2.01 -3.01,4.02 -7.03,7.03 -9.04,12.05 -6.03,-4.02 -21.09,-15.07 -27.12,-17.07l7.03 -13.06 2.01 -6.03c-5.02,-2 -5.02,0 -9.04,8.04 -2.01,3.01 -6.02,10.04 -6.02,13.06l3.01 2c9.04,4.02 33.14,20.09 39.17,28.12l-35.15 34.15 -5.02 4.02 -2.01 -1.01 -24.11 -17.07 -10.04 -5.02 3.01 -8.03c3.02,-7.04 7.03,-10.05 -2,-13.06 -17.08,-5.02 -30.13,-9.04 -50.22,-9.04l0 -11.05c0,-4.02 2.01,-8.03 -2.01,-9.04l-22.09 1.01c-10.05,1 -23.1,4.01 -32.14,7.03l-22.1 9.04c-6.02,2.01 -11.05,6.02 -16.07,9.04l-4.01 3.01c3.01,5.02 4.01,3.01 9.04,0l10.04 -6.03c20.08,-11.04 50.21,-18.07 74.32,-18.07l0 54.23c0,7.03 0,6.02 14.06,7.03 4.02,0 10.04,3.01 12.05,-2.01l3.01 -18.08c1.01,-3.01 0,-4.01 -4.01,-4.01 -2.01,3.01 -4.02,15.06 -4.02,19.08l-16.07 -1.01 0 -35.15c15.07,0 30.13,3.01 44.19,8.04l5.02 2.01c-1,5.02 -7.03,13.05 -7.03,17.07 1.01,2.01 2.01,2.01 5.02,3.01 16.07,7.03 32.14,18.08 44.19,32.14l6.03 8.04 -14.06 9.03c-5.02,3.02 -1.01,7.03 4.02,4.02 2,-2.01 11.04,-8.03 13.05,-8.03l6.03 9.04 8.03 21.09c1.01,1 2.01,10.04 4.02,11.04 1,1.01 23.1,-3.01 24.1,-4.01 3.02,-3.02 -6.02,-26.12 -9.03,-32.14l-10.05 -19.08c-4.02,-6.03 -5.02,-5.03 -8.03,-2.01l7.03 12.05c4.01,8.03 8.03,15.06 11.05,24.1l4.01 13.06 -16.07 3.01c1.01,-4.01 -3.01,-14.06 -5.02,-17.07 -7.03,-18.08 -14.06,-28.12 -26.11,-41.18l25.11 -25.11 10.04 11.05 9.04 11.05 4.02 8.03c17.07,25.11 26.11,67.29 21.09,97.42l-1.01 10.05c-4.01,1 -16.07,-4.02 -20.08,-2.01l-2.01 8.03 -6.03 16.07c-1,3.01 -3.01,5.02 1.01,7.03 3.01,1.01 4.01,-4.02 5.02,-5.02 1,-4.02 6.02,-17.07 6.02,-21.09l15.07 3.01c-3.01,15.07 -13.06,39.17 -22.1,52.23l-26.11 -17.08c-9.04,-5.02 -8.03,-7.03 -13.06,1.01 -13.05,17.07 -31.13,31.13 -51.21,39.17 -27.12,10.04 -28.13,2 -24.11,18.08l2.01 9.03c-15.07,2.01 -29.13,3.02 -44.19,1.01 -9.04,-1.01 -8.04,-3.02 -12.05,0 0,3.01 0,3.01 5.02,4.01 8.61,1.49 17.35,2.25 26.09,2.25 38.34,0 75.3,-14.42 103.48,-40.4 0,-1.01 3.01,-3.02 1,-5.03 -3.01,-3.01 -7.03,3.02 -11.05,6.03 -12.05,10.04 -20.08,15.06 -35.15,22.09 -6.02,2.01 -21.09,8.04 -28.12,9.04l-3.01 -15.06c23.43,-4.36 45.13,-15.55 62.26,-32.14l15.07 -17.07 3.01 2.01 27.12 17.07 -15.07 18.08c-3.01,2.01 -4.02,3.01 -5.02,6.03 2.01,4.01 10.04,10.04 13.06,14.06 -15.97,15.85 -35.19,28.21 -56.25,36.15 -2.01,1 -3.01,2.01 -3.01,4.02l7.03 16.07 -6.03 2c-10.04,3.02 -37.16,11.05 -47.2,11.05l-1 -11.05c-1.01,-11.04 1,-9.03 -18.08,-8.03l-16.07 -0.01c-15.07,0 -39.17,-7.03 -53.23,-12.05l-23.1 -9.04 -1.01 0c-3.01,3.02 1.01,5.03 3.02,6.03l19.08 8.03 10.04 4.02c-2.01,3.01 -5.02,15.07 -5.02,18.08l5.02 3.01c4.02,1.01 16.07,4.02 18.08,3.02 2.01,0 2.01,-3.02 0,-4.02 -2.01,-2.01 -13.06,-3.01 -17.07,-5.02l4.01 -14.06c8.04,2 22.1,6.02 31.14,6.02l-3.02 35.15 -9.04 -1c-14.06,-2.01 -37.16,-8.04 -50.21,-14.06l3.01 -7.03c7.03,-16.07 6.03,-7.03 -23.1,-24.11 -7.03,-4.01 -11.05,-8.03 -14.06,-6.02 0,5.02 0,4.02 7.03,8.03 5.02,4.02 11.05,6.03 18.08,10.05l10.04 4.01 -14.06 32.14c-6.02,-1 -15.06,-8.03 -20.08,-9.04 -3.02,-1 -3.02,1.01 -4.02,3.02l-7.03 13.05c-5.02,0 -20.09,-12.05 -23.1,-12.05 -3.01,1 -9.04,13.06 -12.05,16.07l-18.08 -13.06c-5.02,-4.01 -5.02,-2.01 -6.03,-1l0 3.01 23.1 16.07 24.11 14.06c2,1.01 5.02,2.01 5.02,-1 1,-2.01 -2.01,-3.02 -3.02,-4.02l-10.04 -5.02c-4.02,-2.01 -6.02,-5.02 -10.04,-6.03 1,-4.01 6.02,-8.03 8.03,-13.05 10.05,7.03 21.09,12.05 32.14,18.07l11.05 4.02 -14.06 33.14c-2.01,-2 -7.03,-3.01 -9.04,-4.01 -29.25,-13.21 -56.41,-30.88 -80.36,-52.23l-3.01 -3.01 -16.07 -15.07 -8.03 -10.04 25.1 -20.09c2.01,-1 6.03,-4.01 6.03,-6.02l-15.07 -19.09 13.06 -8.03 15.07 19.08 27.11 27.12 4.02 3.01 -9.04 11.05c-4.02,-1 -8.04,-6.03 -11.05,-8.04 -2.01,-2 -6.02,-8.03 -9.04,-8.03 -2,0 -4.01,2.01 -5.02,4.02l-10.04 8.03c-2.01,2.01 -3.01,3.02 -3.01,6.03 2,1 3.01,2.01 6.02,0l12.05 -12.05 5.02 5.02 10.05 8.03c3.01,3.02 1,3.02 6.02,3.02l6.03 -7.03c9.04,-10.05 11.05,-10.05 3.01,-16.07 -5.02,-4.02 -24.1,-22.1 -28.12,-28.12l14.06 -11.05c4.02,-3.02 11.05,-10.05 14.06,-11.05l11.05 12.05c3.01,4.02 8.04,0 3.01,-4.02l-10.04 -11.04c2.01,-3.02 15.07,-11.05 15.07,-13.06 0,-2.01 -8.04,-11.05 -10.05,-13.06 1.01,-2 11.05,-8.03 13.06,-9.03 10.04,14.06 22.09,26.11 36.15,37.16l6.03 4.01c-1,2.01 -6.03,11.05 -8.03,12.05 -2.01,0 -17.08,-12.05 -20.09,-14.06 -2.01,-2 -5.02,-7.03 -8.04,-7.03l-2 3.02 2 3.01 5.03 5.02 5.02 4.02c-3.02,3.01 -21.09,24.1 -22.1,27.12l-16.07 -14.06c-3.01,1 -5.02,2 -3.01,5.02 3.01,5.02 25.11,21.09 33.14,26.11 -2.01,8.03 -18.07,19.08 -6.02,19.08l10.04 -16.07 15.07 8.04c2,2.01 2,2.01 5.02,2.01 3.01,-5.03 1,-4.02 -5.02,-8.04 -6.03,-3.01 -26.12,-15.06 -29.13,-19.08l21.09 -25.11 1.01 -1 9.03 6.02c8.04,5.02 6.03,5.02 18.08,-13.05l11.05 -16.07c2.01,0 4.02,2.01 5.02,3.01l16.07 7.03c-1,5.02 -7.03,14.06 -7.03,19.08l5.02 2.01c24.11,9.04 53.23,14.06 79.34,10.04l12.06 -1c3.01,4.02 2,14.06 6.02,19.08 3.01,0 20.09,-4.01 21.09,-6.02 1.01,-1.01 0,-3.02 -2.01,-4.02l-16.07 4.02 -3.01 -14.06 9.04 -3.02c18.08,-4.01 32.14,-11.04 47.2,-20.08 6.03,-4.02 2.01,-8.04 -2,-5.03 -26.91,16.96 -58.12,25.98 -89.94,25.98 -20.4,0 -40.65,-3.71 -59.7,-10.92l2.01 -6.02c8.03,-19.08 7.03,-8.04 -19.08,-25.11l5.02 -8.03c2.01,-3.02 5.02,-5.02 5.02,-9.04l-14.06 -10.05 -3.01 -2c-8.04,-7.03 -15.07,-17.08 -21.09,-26.12 -11.05,-16.07 -17.08,-37.16 -17.08,-58.25l15.07 0.01c1,19.08 6.03,35.15 15.06,50.21 3.02,5.03 13.06,19.09 18.08,21.1 5.02,-2.01 10.05,-11.05 15.07,-13.06 2.01,1 19.08,16.07 28.12,16.07 4.02,-6.03 5.02,-12.05 8.03,-18.08 5.02,3.01 13.06,4.02 19.09,4.02l1 18.08 1 2 18.08 -1 14.06 -4.02c1.01,4.02 5.02,9.04 5.02,13.06 -5.02,3.01 -9.04,4.02 -15.06,5.02 -23.1,5.02 -43.19,1.01 -63.27,-7.03l-12.06 -7.03 -4.01 -1c-1.01,0 -2.01,1 -2.01,3.01 0,4.02 14.06,8.03 17.07,11.05 -2.01,5.02 -7.03,12.05 -7.03,18.07 8.04,5.03 21.09,7.03 32.14,9.04l15.07 1.01c4.01,0 4.01,0 6.02,-2.01 -1,-5.02 -5.02,-3.01 -11.05,-3.01l-13.05 -2.01 -23.1 -6.03 6.02 -14.06c12.06,4.02 14.06,5.02 27.12,7.03 15.07,2.01 29.13,0 43.19,-4.02 16.07,-5.02 12.05,-4.01 4.01,-22.09 -1,-2.01 -1,-4.02 -3.01,-5.02l-2.01 0c-2.01,0 -11.05,5.02 -28.12,6.02l0 -35.15c10.04,-1 16.07,-3.01 24.1,-8.03 17.08,-11.05 22.1,-36.16 13.06,-54.24l-6.03 -9.04 10.05 -10.04 4.02 4.02 9.03 14.06c2.01,1 17.08,-6.03 19.09,-7.03l18.07 -7.03c5.03,7.03 9.04,32.14 7.03,42.18 0,2.01 -2,12.05 -1,13.06 1,2 3.01,2 4.02,1 2.01,-3.01 3.01,-15.06 3.01,-19.08l15.06 0c0,16.07 -4.01,29.12 -8.03,40.17l-15.07 -6.02c-3.01,-1.01 -21.09,-9.04 -23.09,-8.04 -2.01,0 -2.01,2.01 -1.01,3.01 1.01,3.02 14.06,6.03 18.08,9.04l-4.02 7.03c-3.01,4.02 -11.05,17.08 -15.06,19.09 -4.02,-2.01 -22.1,-21.1 -26.11,-24.11l12.05 -17.07c3.01,-6.03 5.02,-13.06 5.02,-23.1l13.05 0c4.02,0 8.04,2.01 8.04,-4.02l-4.02 -1 -15.06 0c-10.05,0 -6.03,1 -8.04,12.05 -1,8.03 -4.02,15.06 -9.04,22.09 -2,3.02 -5.02,8.04 -9.04,11.05l-12.05 8.04 -7.03 3.01c-2.01,2.01 0,6.03 4.02,4.02 7.03,-3.02 12.05,-7.03 18.08,-11.05 6.02,4.02 14.06,13.06 20.08,18.08l6.03 6.02 -15.07 11.05c0,9.04 10.05,0 13.06,-2.01l12.05 -11.05c7.03,-7.03 14.06,-18.07 17.08,-27.11 7.03,1 13.05,7.03 20.08,7.03l1.01 -1.01c4.01,-7.03 7.03,-23.1 9.04,-32.14l0 -13.05c3.01,0 26.11,3.01 21.09,-4.02 -2.01,-2.01 -5.02,-1 -8.04,-1l-33.14 0c0,-13.06 -3.01,-24.11 -7.03,-35.15l-3.01 -4.02 -18.08 7.03c-2.01,-1.01 -3.01,-4.02 -4.02,-7.03 -9.04,-15.07 -20.09,-24.11 -36.15,-32.14l-3.02 -2.01c2.01,-4.02 3.02,-10.04 6.03,-14.06l4.02 3.01 17.07 10.05c2.01,2.01 9.04,9.04 11.05,8.03 2.01,0 3.01,-2.01 2.01,-4.02 -7.03,-8.03 -22.1,-17.07 -31.14,-21.09 -6.02,-3.01 -6.02,-3.01 -9.04,3.02l-6.02 13.05c-8.04,-4.01 -20.09,-5.02 -30.13,-5.02 -15.07,0 -18.08,2.01 -30.13,5.02l-5.02 -13.05 11.04 -4.02c7.03,-2.01 8.04,-1.01 6.03,-8.04l-5.02 -25.1c-3.02,-15.07 -1.01,-14.06 -15.07,-10.05 -14.06,3.02 -30.13,10.05 -42.18,18.08l-20.09 14.06c-6.02,5.02 -15.06,16.07 -20.08,22.1 -4.02,6.02 -5.02,4.01 -1.01,9.04 4.02,-2.01 5.02,-5.03 7.03,-7.03 2.01,-4.02 9.04,-11.05 12.06,-14.07l25.1 25.11 -10.04 12.05c-3.01,4.02 0,7.04 3.01,5.03l5.03 -7.03c7.03,-8.04 15.06,-16.07 24.1,-21.1 0,-4.01 0,-4.01 -2.01,-6.02l-8.03 -12.05 13.05 -7.03c2.01,-1.01 8.04,-2.01 7.03,-5.02 0,-2.01 -1,-2.01 -3.01,-2.01 -5.02,1 -14.06,6.02 -18.08,8.03 -2.01,2.01 -7.03,3.01 -5.02,7.03l10.04 15.07 -12.05 9.04 -25.11 -25.11c19.4,-16.71 42.48,-28.79 67.29,-35.16 2.01,2.01 4.02,14.06 4.02,17.08l4.02 17.07 -12.05 4.02c-11.05,3.01 -7.03,3.01 0,21.09l2 4.02c6.03,0 12.06,-6.03 34.15,-6.03 0.24,0 0.49,0 0.73,0 15.91,0 31.46,4.93 44.47,14.07l11.04 9.04 9.04 10.04 7.03 12.05 -14.06 6.03c-2.01,-5.02 -8.03,-15.07 -13.05,-18.08 -2.01,-1.01 -3.02,0 -5.02,1l-11.05 11.05c-4.02,-2.01 -6.03,-7.03 -22.1,-9.04 -15.06,-3.01 -34.14,4.02 -43.18,16.07 -6.03,7.03 -8.04,14.06 -9.04,23.1l-15.07 0c0,-7.03 2.01,-13.06 4.02,-18.08 1,-4.02 -1,-7.03 -4.02,-5.02 -3.01,3.01 -7.03,24.1 -5.02,27.11 1.01,2.01 6.03,1.01 9.04,1.01l11.05 0c1,12.05 5.02,17.07 11.05,25.11l-11.05 11.04 -9.04 -13.05 -3.01 -5.02c-3.02,0 -15.07,5.02 -18.08,7.03 -4.02,-6.03 -5.02,-15.07 -6.03,-22.1 -0.1,-1.59 -0.15,-3.2 -0.15,-4.8 0,-20.07 8.01,-39.32 22.24,-53.45l7.03 7.03c3.02,3.01 6.03,8.04 10.05,4.02 6.02,-5.02 12.05,-9.04 20.08,-12.05 32.14,-11.05 48.21,7.03 48.21,-2.01 0,-3.02 -5.02,-4.02 -7.03,-4.02 -6.6,-2.1 -13.5,-3.18 -20.44,-3.18 -16.08,0 -31.64,5.77 -43.83,16.23l-4.02 -4.01 -10.04 -9.04c-3.02,0 -4.02,3.01 -5.03,4.01 -9.03,9.04 -11.04,16.07 -15.06,21.1l-33.14 -13.06 5.02 -10.04c3.01,-4.02 5.02,-7.03 5.02,-11.05 -4.02,-2.01 -4.02,0 -7.03,4.02l-4.02 6.02c-6.02,12.05 -8.03,14.06 -1,16.07l14.06 6.03 -4.02 14.06c-7.03,0 -29.12,-7.03 -36.15,-7.03l4.01 -14.06c2.01,-5.03 7.03,-12.06 2.01,-13.06 -6.02,-1 -10.04,24.1 -12.05,26.11 -3.01,-2.01 -12.05,-2.01 -14.06,-3.01l7.03 -24.1c5.02,-14.07 18.08,-34.15 29.12,-45.2l1.01 -3.01c3.01,-2.01 6.02,-4.02 8.03,-8.04l-3.01 -3.01c-3.01,0 -15.06,16.07 -19.08,21.09l-2.01 3.01 -13.06 -8.03c1.01,-4.02 9.04,-11.05 10.05,-13.06 0,-2.01 -2.01,-4.01 -4.02,-3.01 -2.01,0 -6.03,7.03 -7.03,8.03 -2.01,3.02 -5.02,6.03 -6.03,10.05l16.07 10.04c0,2.01 -5.02,9.04 -7.03,12.05 -8.03,16.07 -10.04,24.11 -15.06,40.17l-1.01 2.01c-17.07,-2.01 -19.08,-7.03 -21.09,2.01 -3.01,14.06 -2.01,27.12 -3.01,40.18 0,9.03 5.02,38.16 7.03,43.18l-14.06 4.02c-5.08,-17.86 -7.66,-36.37 -7.66,-54.93 0,-10.87 0.91,-21.73 2.65,-32.45 1,-12.05 3.01,-15.06 5.02,-24.1 1.01,-2.01 0,-4.02 -2.01,-4.02l-17.07 -5.02 8.03 -20.09c10.05,-22.09 12.06,-18.07 1.01,-24.1l-27.12 -14.06c1.01,-4.02 11.05,-18.08 13.06,-22.1l14.06 -18.07 1 -3.02c-4.01,-3.01 -5.02,0 -11.04,6.03l-8.04 11.05 -15.06 23.1 -5.03 -3.02c-9.04,-4.01 -14.06,-9.04 -14.06,-1l40.18 21.09 13.05 6.03 -4.01 9.04c-3.02,7.03 -7.04,15.06 -9.04,23.09l-2.01 4.02c-5.02,-1 -14.06,-5.02 -19.08,-5.02l-5.03 13.06c-1,3.01 -5.02,15.06 0,15.06 5.03,0 4.02,-16.07 8.04,-22.09l34.15 10.04c-5.03,21.09 -8.04,33.14 -8.04,56.24 0,18.08 2.01,41.18 8.04,57.25l-10.05 3.01c-4.02,1.01 -8.03,1.01 -9.04,5.02 2.01,2.01 2.01,2.01 5.02,2.01l16.07 -5.02 2.01 7.03c6.03,14.06 13.06,29.13 22.1,42.18l-12.05 8.04c-5.03,-6.03 -13.06,-20.09 -16.07,-26.12 -3.02,-8.03 -4.02,-13.05 -9.04,-10.04l-15.07 6.03c-4.01,-6.03 -9.04,-26.12 -11.05,-33.15l-3.01 -11.04c-7.03,0 -13.05,2.01 -20.08,3.01l-2.01 -15.07c-1.01,-5.02 0,-12.05 -6.03,-9.03 -1,8.03 2.01,24.1 4.02,31.13 1,4.02 4.01,21.09 6.02,23.1 2.01,1 3.02,0 5.03,-1.01 0,-5.02 -5.03,-16.06 -6.03,-24.1l15.06 -3.01c1.01,11.05 9.04,30.13 13.06,41.18l-25.11 10.04 -8.03 3.01 -2.01 -3.01c-8.04,-22.1 -15.07,-45.2 -18.08,-70.3l-1 -14.07 0 -14.06 33.13 0.01c4.02,0 8.03,1 8.03,-3.01 0,-3.02 -4.01,-2.01 -8.03,-2.01l-33.14 0 0 -13.06 1 -11.05c0,-3.01 -3.01,-5.02 -5.02,-3.01 -2.01,2.01 -2.01,28.12 -2.01,34.15l1.01 11.04c0,28.13 9.03,62.27 19.08,88.38 1,2.01 2.01,7.03 6.02,6.03l17.08 -7.03 9.04 19.08c-18.08,10.05 -20.09,6.03 -14.06,17.08l7.03 12.05c5.02,6.02 5.02,10.04 9.03,7.03 1.01,-3.02 -1,-5.02 -2,-7.03l-11.05 -17.08 5.02 -3.01c8.03,-4.02 14.06,-5.02 12.05,-10.04 -3.01,-5.02 -10.04,-16.07 -10.04,-20.09l17.07 -6.03c3.02,-2 13.06,-6.02 16.07,-6.02l3.01 4.02c6.03,15.06 10.05,20.08 18.08,32.13l4.02 0.01 17.07 -12.06c0,-4.01 -4.01,-9.04 -6.02,-13.05 -8.04,-12.06 -14.06,-26.11 -19.08,-40.18l18.07 -5.02c3.02,-2.01 -2.01,-13.05 -2.01,-17.07l14.06 -3.01 8.04 23.1c1,3.01 1,6.02 4.02,6.02 4.01,0 2,-4.02 1,-6.02 -1,-4.02 -7.03,-20.09 -7.03,-24.11 3.01,-2.01 11.05,-2.01 14.06,-3.01 2.01,2.01 4.02,13.06 8.04,22.09 4.01,10.05 9.03,20.09 15.06,28.13l3.01 4.01 10.05 12.05c1,1.01 7.03,8.04 9.04,4.02 1,-3.01 -1.01,-4.02 -2.01,-5.02 -11.05,-12.05 -20.09,-24.1 -27.12,-39.17 -17.07,-35.15 0,-35.15 -32.14,-28.12 -4.02,1 -17.07,2.01 -20.09,4.02l-2 -16.07 0 -33.14 2 -16.07c25.11,6.02 51.23,10.04 76.33,15.06 8.04,2.01 6.03,-3.01 9.04,-12.05l2.01 -5.02 14.06 5.02c-2.01,5.02 -7.03,24.1 -5.02,32.14l2.01 17.07 5.02 14.06c6.03,0 13.06,-5.02 19.08,-7.03l7.03 10.04c9.04,12.06 9.04,10.05 18.08,1.01 13.06,-14.06 8.04,-6.03 0,-20.09 -5.02,-9.04 -6.02,-20.08 -2.01,-30.13 8.04,-24.1 38.17,-32.14 59.26,-18.08 25.11,17.08 20.08,57.25 -11.05,66.29 -16.07,5.02 -16.07,-5.02 -14.06,22.1l-12.05 -2.01 -10.05 -3.02c-3.01,1.01 -8.03,16.07 -9.03,18.08l-6.03 -3.01c-11.05,-5.02 -17.07,-15.07 -21.09,-13.06 -3.01,1.01 -10.04,11.05 -13.06,12.05l-12.05 -14.06c-9.04,-14.06 -16.07,-34.14 -16.07,-50.21 1.01,-6.03 -2.01,-5.02 -7.03,-5.02l-54.23 0c-9.04,0 -6.03,4.01 -4.02,5.02l39.17 0c1,33.14 15.06,63.27 39.17,85.37l15.06 13.05 -2.01 4.02c-4.01,5.02 -16.07,21.09 -17.07,25.11l-16.07 -12.05 -9.04 -8.04 -15.06 -18.08c-6.03,-8.03 -2.01,-8.03 -22.1,5.02l-12.05 -20.08c-1,-2.01 -3.01,-10.04 -6.03,-10.04 -2,-1.01 -3.01,2 -3.01,4.01l14.06 25.11c4.02,6.03 11.05,14.06 13.06,19.08l-3.02 2.01 -41.17 32.14 -14.06 -19.08 -11.05 -17.08c-1,-3.01 -3.01,-2.01 -5.02,-1 0,4.02 1,4.02 2.01,6.03l9.04 15.06c-1.01,2.01 -7.03,5.02 -9.04,6.03 -9.04,7.03 -10.05,3.01 6.02,24.1l2.01 2.01 -28.12 22.09 -4.02 -5.02 -5.02 -6.02c-38.77,-50.51 -59.85,-112.49 -59.85,-176.19 0,-12.93 0.88,-25.96 2.61,-38.74l3.02 -17.07 35.15 7.03c0,4.02 -5.03,22.09 -2.01,25.11l20.08 2.01 20.09 2 -1 29.13 1 9.04 -11.05 2.01c-3.01,0 -9.04,-1.01 -9.04,3.01 0,5.02 13.06,1 21.1,1l2 15.07c0,1 0,5.02 2.01,6.03 8.04,3.01 2.01,-15.07 2.01,-18.08 -2.01,-18.08 -3.01,-27.12 -1,-46.2l3.01 -25.11 -1 -2.01c-3.02,0 -4.02,0 -4.02,3.02 -2.01,6.02 -3.01,11.04 -3.01,18.07l-36.16 -4.01c0,-12.06 9.04,-45.2 13.06,-56.25l5.02 -12.05c7.03,2.01 15.06,8.04 20.08,7.03l0 -4.01 -31.13 -13.06 -11.05 -4.02c-2.01,1.01 -9.04,20.09 -10.04,24.1 -2.01,6.03 -2.01,5.03 0,8.04 4.02,-1 4.02,-2.01 5.02,-5.02 2.01,-5.02 5.02,-17.07 8.04,-20.09l13.05 5.02c0,3.02 -13.05,35.15 -13.05,44.19 -9.04,0 -28.13,-6.02 -35.16,-6.02 7.4,-34.59 21.06,-67.68 40.17,-97.42l3.01 -6.03 13.06 8.04c6.02,4.01 5.02,2.01 13.05,-9.04l27.12 -30.13 25.11 24.1c-1.01,3.01 -4.02,5.02 -6.03,7.03l-17.07 21.09c-3.01,3.02 -6.03,6.03 -6.03,11.05l33.15 21.09c-8.04,13.06 -11.05,17.07 -17.08,32.14 -2.01,3.01 -1,4.02 3.01,5.02l14.07 6.03 -5.03 13.05c-1,3.02 0,2.01 1.01,5.02l3.01 0 7.03 -21.09 -18.08 -8.03c1.01,-2.01 5.03,-11.05 7.03,-12.05l8.04 4.01c4.02,2.01 6.03,4.02 10.04,4.02l2.01 -2.01c-1,-3.01 -3.01,-3.01 -8.03,-6.02l-10.05 -5.03 4.02 -6.02c6.03,-10.05 14.06,-21.09 22.1,-29.13l2 -3.01 5.03 -4.02 8.03 7.03c3.01,3.02 5.02,8.04 9.04,4.02l4.02 -4.02c42.18,-36.15 97.42,-53.23 153.66,-45.19 7.03,1 11.05,3.01 11.05,-3.02l-4.02 -1 -14.06 -2.01 2.01 -15.06 15.06 2c5.02,1.01 7.03,-2 4.02,-4.01l-6.03 -1.01c-12.05,-3.01 -13.05,0 -12.05,-7.03l1.01 -11.04c1,-3.02 1,-3.02 -1.01,-4.02l-21.09 -1.01 0 -16.06c0,-2.01 0,-4.02 -2.01,-4.02 -5.02,-1.01 -20.08,0 -27.11,1 -8.04,1.01 -20.09,2.01 -25.11,4.02 0,6.03 2.01,12.05 3.01,17.07l5.02 25.11c2.01,2.01 6.03,2.01 5.02,-2.01l-3.01 -16.07 12.05 -2c4.02,-1.01 10.05,0 9.04,-4.02 0,-3.02 -2.01,-3.02 -5.02,-2.01l-12.05 1 -5.02 1.01 -3.02 -14.06c13.06,-3.02 27.12,-3.02 42.18,-4.02 1.01,24.1 -3.01,18.08 13.06,20.09l10.04 1 -4.01 34.15 -32.14 0c1,-4.02 -1.01,-10.04 -1.01,-14.06l13.06 -1.01 6.03 -1c2.01,-1.01 1,-3.01 0,-4.02 -24.11,0 -26.12,-3.01 -24.11,10.05l1.01 11.04c-6.03,0 -27.12,4.02 -31.14,6.03 -2.01,-4.02 -3.01,-14.06 -6.02,-18.08 -1.01,-2.01 -3.02,-1 -5.02,0 1,8.04 5.02,14.06 5.02,19.08l-22.1 9.04 -7.03 3.02 -8.03 -15.07c-2.01,-4.02 -6.03,-1.01 -5.02,2.01l9.03 16.07c-12.05,4.01 -20.08,13.05 -27.11,16.07l-29.13 -34.15 -9.04 -11.05c-4.01,0 -4.01,0 -4.01,3.02 0,2 9.03,12.05 12.05,15.06l-5.02 4.02 -5.03 4.02 -12.05 12.05 -8.03 9.04c-2.01,3.01 1,8.03 6.02,1l11.05 -12.05 8.04 -7.03 8.03 -7.03 6.03 7.03 10.04 12.05 7.03 8.04 -10.04 8.03c-5.02,-2.01 -12.06,-16.07 -17.08,-11.05 -5.02,4.02 -22.09,22.1 -23.1,27.12 -3.01,0 -17.07,-10.04 -20.08,-12.05 -3.01,-2.01 -8.04,-4.02 -10.04,-7.03 0,-2.01 11.04,-15.07 13.05,-18.08 3.01,-3.02 16.07,-15.07 16.07,-17.07 0,-2.01 -2.01,-3.02 -3.01,-5.03l-21.09 -19.08c-9.04,-10.04 -8.04,-9.04 -16.07,-1 -7.03,7.03 -26.12,29.12 -29.13,35.15l-13.05 -8.04c13.97,-20.38 30.55,-39.03 49.2,-55.25l9.04 -6.02 2.01 3.01 17.07 20.09c7.03,7.02 5.02,10.04 14.06,2l14.06 -9.04 17.08 24.11 12.05 18.08 4.01 6.02c12.06,1.01 -4.01,-13.05 -5.02,-18.08l9.04 -6.02c11.05,-6.03 11.05,-2.01 0,-22.1 5.02,-4.01 15.07,-6.02 21.09,-10.04 0,-5.02 -3.01,-9.04 -5.02,-14.06 -3.01,-7.03 -3.01,-10.04 -9.04,-8.03l7.03 19.08c-3.01,2.01 -21.09,8.03 -21.09,11.04l9.04 17.08 -15.06 9.04 -20.09 -29.13 9.04 -6.02 9.04 -4.02c7.03,-4.02 3.01,-7.03 0,-6.03 -5.02,1.01 -31.14,18.08 -37.16,22.1l-5.02 4.02c-2.01,0 -2.01,-2.01 -3.02,-3.02l-20.08 -24.1 19.08 -14.06c5.02,-3.02 21.09,-13.06 27.12,-15.07 1,4.02 6.02,10.05 6.02,14.06 -3.01,1.01 -22.09,11.05 -23.1,14.06 0,2.01 1.01,3.02 3.01,3.02l9.04 -5.02c15.07,-10.05 21.1,-7.03 16.07,-17.08l-7.03 -12.05 19.09 -8.03c9.03,-4.02 51.22,-19.09 62.26,-19.09 0,2.01 2.01,17.08 4.02,18.08 1.01,2.01 3.01,1.01 4.02,0l-3.02 -19.08c8.04,0 16.07,-4.02 24.11,-3.01l4.02 34.14 -25.11 4.02 -22.1 5.02c-1,-5.02 -4.01,-14.06 -7.03,-18.08 -4.02,0 -29.12,8.04 -30.13,10.05 -1,2 -1,3.01 1.01,4.01 3.01,1.01 18.07,-7.03 26.11,-8.03 1,6.02 16.07,48.21 16.07,52.22l-20.09 7.03 2.01 8.04 6.03 13.05c2.01,5.03 5.02,1.01 5.02,-1 1,-2.01 -5.02,-13.06 -6.03,-16.07 2.01,-2.01 11.05,-5.02 14.06,-6.03 8.04,-2 7.03,-1 -1,-25.1l-5.02 -15.07 8.03 -2.01c22.13,-5.51 44.87,-8.3 67.67,-8.3 14.32,0 28.67,1.12 42.82,3.3 6.02,1.01 12.05,4.02 13.05,-2.01 -2.01,-2.01 -2.01,-1 -6.02,-2.01 -6.03,-1 -13.06,-3.01 -20.09,-3.01 3.01,-27.12 4.02,-19.08 -15.07,-21.09l-16.07 0c0,0 -3.01,2 0,4.01 2.01,2.01 24.11,0 26.12,2.01l0 7.03 -1.01 8.04 -11.05 -1.01 -25.1 0 -12.06 1.01 -3.01 -35.15 14.06 -1.01 13.06 0 1 -1c1.01,-1.01 4.02,0 1.01,-4.02l-15.07 0 -18.08 1c-21.09,1.01 -57.24,10.05 -76.32,17.08l-27.12 10.04 -30.13 16.07c-11.05,7.03 -34.15,22.09 -43.19,31.13l-15.06 13.06c-20.09,20.09 -38.17,42.18 -52.23,68.29l-4.01 7.03c-4.02,6.03 -8.04,16.07 -11.05,23.1 -11.05,21.09 -21.09,63.28 -23.1,87.38l-1.01 8.03 -1 8.04 1 0z"/>
  <path class="fil1" d="M321.12 358.02c8.03,0 14.06,6.03 14.06,14.06 0,7.03 -6.03,13.06 -14.06,13.06 -8.04,0 -14.06,-6.03 -14.06,-13.06 0,-8.03 6.02,-14.06 14.06,-14.06z"/>
  <path class="fil1" d="M321.12 402.21c-17.07,0 -31.13,-14.06 -31.13,-30.13 0,-17.07 14.06,-30.13 31.13,-30.13 17.07,0 31.13,13.06 31.13,30.13 0,16.07 -14.06,30.13 -31.13,30.13zm0 -54.23c-14.06,0 -24.1,11.04 -24.1,24.1 0,13.06 10.04,23.1 24.1,23.1 13.06,0 24.1,-10.04 24.1,-23.1 0,-13.06 -11.04,-24.1 -24.1,-24.1z"/>
  <path class="fil2 str0" d="M334.18 56.72c-3.02,31.14 118.5,82.36 7.03,65.28 -21.1,-3.01 13.05,31.14 24.1,43.19 6.03,6.03 9.04,39.17 -1,38.17 -10.05,-1.01 -51.23,-3.02 -63.28,-1.01 -25.11,4.02 -49.21,13.06 -69.3,22.09 -18.07,8.04 -28.12,19.09 -40.17,28.13 -9.04,7.03 -11.05,-14.06 -19.08,-6.03 -6.03,6.03 -12.05,16.07 -17.07,23.1 -3.02,3.01 9.03,11.05 8.03,21.09 -1,26.11 -11.05,41.18 -30.13,37.16 -9.04,-2.01 2.01,-16.07 -5.02,-20.09 -7.03,-3.01 -15.07,-5.02 -12.05,-10.04l13.05 -26.11c7.03,-14.06 -30.13,-19.08 -25.1,-29.13 6.02,-13.05 15.06,-23.1 19.08,-36.15 8.03,-30.13 -29.13,7.03 -44.19,22.09 -6.03,6.03 -45.2,8.04 -21.09,22.1 14.06,8.03 27.11,15.06 41.17,21.09 4.02,2.01 1.01,21.09 -8.03,21.09 -9.04,-1.01 -14.06,-4.02 -16.07,4.02l-8.03 33.14c-1.01,5.02 9.03,6.03 16.06,6.03 11.05,2 2.01,-21.1 13.06,-17.08 6.03,3.02 16.07,4.02 14.06,10.05 -10.04,18.07 -4.02,89.38 -4.02,94.4 -1,6.03 -16.07,10.04 -18.07,4.02 -10.05,-38.17 -21.09,-5.02 -23.1,-20.09 -3.02,-23.1 -2.01,-9.04 12.05,-25.11 26.11,-33.14 -38.17,-7.03 -35.15,-45.19 1,-17.07 -15.07,-12.05 -18.08,1 -20.09,76.33 19.08,154.67 54.23,208.9 2.01,3.02 23.1,3.02 4.02,-30.13 -9.04,-16.07 9.04,8.04 8.03,-30.13 0,-37.16 31.14,21.09 38.17,18.08 10.04,-4.02 48.21,4.02 13.05,-57.25 -24.1,-42.18 59.26,16.07 77.34,35.16 9.04,10.04 14.06,1 11.05,-6.03 -8.04,-17.07 -38.17,-62.27 -44.2,-80.35 -10.04,-32.13 -38.16,22.1 -39.16,-35.15 0,-10.04 76.32,-6.02 79.34,9.04 3.01,11.05 6.02,51.22 22.09,49.21 22.1,-3.01 34.15,9.04 39.17,4.02l22.1 -28.12"/>
  <path class="fil1" d="M323.05 18.71c7.03,0 13.06,6.03 13.06,13.06 0,8.03 -6.03,14.06 -13.06,14.06 -8.03,0 -14.06,-6.03 -14.06,-14.06 0,-7.03 6.03,-13.06 14.06,-13.06z"/>
  <path class="fil1" d="M322.05 61.9c-17.08,0 -31.14,-13.06 -31.14,-30.13 0,-16.07 14.06,-30.13 31.14,-30.13 17.07,0 31.13,14.06 31.13,30.13 0,17.07 -14.06,30.13 -31.13,30.13zm0 -53.23c-13.06,0 -24.11,11.05 -24.11,23.1 0,13.06 11.05,24.1 24.11,24.1 13.03,0 23.6,-10.57 23.6,-23.6 0,-13.03 -10.57,-23.6 -23.6,-23.6l0 0z"/>
  <path class="fil3" d="M17.81 455.44c16.07,55.24 50.22,107.46 96.42,147.64 106.46,91.39 274.18,99.42 389.68,18.07 98.42,-67.29 142.61,-178.77 131.56,-279.2 -16.4,-146.13 -134.57,-260.08 -281.21,-271.18 -5.02,-1.01 -7.03,4.01 -2.01,5.02l27.12 3.01 -4.02 19.08c0,2.01 22.1,5.02 27.12,7.03 0,6.03 -5.02,12.05 -5.02,20.09l24.1 8.03c-2.01,4.02 -8.03,15.07 -7.03,19.09l4.02 1c2.01,-4.02 9.04,-19.08 9.04,-23.1 -7.03,-3.01 -17.07,-8.03 -24.1,-9.04l5.02 -14.06c21.09,5.02 52.22,21.09 70.3,33.14l1 0.02c-3.01,4.02 -10.04,12.05 -11.05,17.08 6.03,4.01 15.07,12.05 20.09,14.06l-22.09 27.11 -33.15 -21.09 7.03 -13.05c3.02,2.01 20.09,14.06 22.1,9.04 1,-4.02 -16.07,-12.06 -20.09,-14.07l6.03 -10.04c2.01,-4.02 6.02,-9.04 -1.01,-9.04l-19.08 34.15c-3.01,-3.01 -43.18,-18.08 -59.25,-20.09l3.01 -15.06c4.02,2.01 21.09,6.02 24.1,5.02l0 -3.01c-8.03,-5.03 -37.16,-10.05 -47.2,-10.05 -4.02,-1 -6.03,-2.01 -6.03,3.02 3.02,2 8.04,2 12.06,3.01l12.05 2.01 -4.02 15.06c-1,5.02 3.01,4.02 12.05,7.03 5.02,1.01 25.11,6.03 30.13,9.04l-14.06 32.14 -12.05 -4.02c0,-4.01 5.02,-15.06 5.02,-18.07 0,-2.01 -2.01,-3.02 -4.02,-2.01l-4.01 11.04 -3.02 12.06c4.02,3.01 11.05,4.01 16.07,6.02l-5.02 14.06c-6.02,-2.01 -26.11,-9.04 -31.13,-9.04 -2.01,1.01 -4.02,5.02 1,6.03 25.11,4.02 35.15,11.05 56.24,21.09 -3.01,5.02 -10.04,12.05 -11.04,17.07 3.01,2.01 3.01,3.02 6.02,0l8.04 -12.05c6.02,-8.03 3.01,-7.03 -11.05,-15.06l-14.06 -6.03c7.03,-17.07 14.06,-35.15 22.09,-51.22 11.05,6.03 24.11,10.04 34.15,18.08l-7.03 10.04c-2.01,3.02 -6.03,8.04 1,8.04l11.05 -15.07c4.02,3.01 12.05,10.04 18.08,12.05l13.06 -15.06c4.01,4.01 29.12,26.11 30.13,30.13l-24.11 18.08c-5.02,4.01 -10.04,5.02 -5.02,11.04l9.04 11.05c-5.02,3.01 -19.08,9.04 -15.07,15.07 22.1,32.13 27.12,58.25 30.13,99.42l4.02 0c3.01,-1 1.01,-14.06 1.01,-17.07 11.04,0 24.1,-3.01 36.15,-4.02l1.01 20.09c1,2.01 5.02,3.01 5.02,-3.01 0,-5.02 1,-18.08 -2.01,-22.1 -17.07,1.01 -20.09,4.02 -20.09,-1l-7.03 -31.14c4.02,-2.01 20.09,-4.01 19.08,-9.04 -1,-4.01 -14.06,3.02 -20.08,3.02 -5.02,-11.05 -7.03,-22.1 -16.07,-35.15 -7.03,0 -4.02,4.01 -2.01,8.03 8.03,15.07 20.09,50.22 20.09,67.29l-14.06 2.01c-6.03,-41.18 -16.07,-55.24 -29.13,-79.34 1,-2.01 24.1,-17.08 29.13,-19.08 3.01,2 7.03,11.04 9.03,14.06 3.02,6.02 8.04,2 5.03,-3.02l-9.04 -15.06c3.01,-1.01 15.06,-8.04 16.07,-11.05 0,-3.01 -2.01,-4.02 -6.03,-1 -34.15,18.07 -26.11,25.1 -40.17,7.03l44.19 -34.15c4.02,5.02 25.11,32.14 26.11,37.16l-14.06 8.03c-6.03,3.02 -1,5.03 7.03,22.1 -5.02,4.02 -14.06,5.02 -19.08,8.03 0,3.02 1,5.03 4.02,4.02l17.07 -6.03c3.01,6.03 11.05,30.13 12.05,39.17 -3.01,0 -19.08,3.02 -19.08,5.03 -3.01,6.02 10.04,2 13.05,2 9.04,-2 13.06,-1 11.05,-8.03 -2.01,-12.05 -16.07,-55.24 -23.1,-62.27 9.04,-6.02 20.09,-7.03 17.08,-13.06l-12.06 -19.08 9.04 -6.02c9.04,-6.03 11.05,-3.02 -1,-19.08l-10.04 -11.05c-2.01,0 -5.03,0 -4.02,3.01l16.07 20.09c-4.02,4.01 -8.04,5.02 -13.06,9.04l-15.06 -20.09c-2.01,0 -15.07,9.04 -17.08,12.05 2.01,-1 -29.12,-30.13 -31.13,-31.13 14.06,-15.07 14.06,-14.06 8.03,-19.08l-16.07 -11.05 9.04 -13.06c3.02,-5.02 0,-5.02 -2.01,-6.02 -24.1,-17.08 -65.28,-35.16 -101.43,-41.18l3.01 -14.06c62.27,13.05 106.46,33.14 153.66,78.34 -2.01,4.01 -7.03,8.03 -10.04,11.04l-12.05 -10.04c-7.03,-5.02 -7.03,-9.04 -12.05,-6.03 0,5.03 1,3.02 4.01,6.03 4.02,3.01 13.06,10.04 16.07,14.06 -11.05,11.05 -18.08,13.06 -12.05,17.07 4.02,-1 24.1,-23.1 30.13,-27.11 23.1,22.09 37.16,40.17 51.22,65.28l-13.06 7.03c-2,1 -5.02,2.01 -4.01,4.01 0,3.02 9.04,17.08 11.05,23.1 -14.07,7.03 -20.09,5.03 -18.08,11.05 10.04,26.11 14.06,44.19 19.08,70.3l-20.09 2.01c-2.01,2.01 -1,4.02 1.01,5.02 3.01,0 21.09,-1 24.1,-3.01 3.01,-7.03 -13.06,-65.28 -18.08,-74.32l14.06 -6.02c4.02,6.02 11.05,32.13 13.06,39.16 1,4.02 1,10.05 4.02,13.06 3.01,0 4.01,0 4.01,-3.01 0,-7.03 -11.04,-38.17 -15.06,-48.21l-13.06 -28.12 13.06 -7.03c15.06,24.1 32.14,79.34 34.15,106.46 -13.06,2.01 -24.11,0 -21.09,6.02 0,3.02 15.06,-1 21.09,-1 4.01,19.08 0,36.15 0,54.23l-33.15 -4.02c-3.01,0 -8.03,-1 -8.03,2.01 -1.01,4.02 5.02,3.02 8.03,4.02l33.15 3.01c-7.03,61.27 -32.14,109.47 -66.29,155.67 -7.03,-4.01 -16.07,-15.06 -19.08,-11.04 -3.01,3.01 10.04,11.04 15.06,14.06 -23.1,29.12 -58.25,51.22 -63.27,56.24 -13.06,-18.08 -10.04,-18.08 -20.09,-11.05l-16.06 8.04 -17.08 -30.13 20.09 -12.06c0,-6.02 -7.03,-12.05 -10.04,-17.07l19.08 -14.06 9.04 -8.03c2.01,-1.01 9.04,-8.04 3.01,-9.04 -3.01,0 -4.02,2.01 -5.02,4.01l-9.04 7.03 -24.1 18.08c0,5.02 8.03,13.06 10.04,17.08 -12.05,9.03 -31.14,16.06 -41.18,21.09 0,4.01 1.01,6.02 5.02,4.01l19.08 -9.04 12.06 23.1c8.03,15.07 4.01,15.07 25.11,3.02l7.03 -4.02c1,4.02 6.02,8.03 8.03,12.05 -11.05,8.04 -36.16,19.08 -48.21,25.11l-14.06 -33.14c-2.01,-5.02 -5.02,-3.02 -9.04,-1.01l-18.08 6.03 -10.04 -33.14c9.04,-4.02 32.14,-12.06 40.17,-17.08 0,-5.02 -4.01,-10.04 -6.02,-14.06 -4.02,-8.03 -4.02,-9.04 -9.04,-7.03 0,4.02 7.03,14.06 9.04,18.08 -22.1,11.05 -48.21,18.08 -59.26,20.09 -5.02,1 -4.01,7.03 3.02,5.02l16.07 -4.02c3.01,4.02 10.04,33.14 13.05,38.16l25.11 -8.03c3.01,4.02 10.04,25.11 14.06,32.14 -60.26,24.1 -113.49,23.1 -143.62,20.09 2.01,-21.1 7.03,-18.08 -14.06,-21.1 -8.03,-1 -32.14,-5.02 -39.17,-9.04 0,-4.01 8.04,-27.11 10.05,-33.14 26.11,6.03 76.33,16.07 116.5,6.03l7.03 34.14c-20.09,3.02 -29.13,5.03 -50.22,5.03l0 -15.07c6.03,0 21.09,0 25.11,-2.01 2.01,-1 2.01,-4.01 -1,-4.01 -5.03,0 -45.2,2 -78.34,-4.02 -3.01,-1.01 -3.01,0 -4.02,2.01 1.01,4.01 6.03,4.01 11.05,4.01 16.07,3.02 24.1,3.02 41.18,4.02 0,6.03 -1.01,15.07 1,19.08 20.09,3.02 59.26,-4.01 79.34,-9.04 3.02,-1 12.05,-2 10.05,-6.02 -1.01,-2.01 -5.03,-1.01 -7.04,0l-21.09 5.02c-2,-7.03 -7.03,-37.16 -9.03,-41.18 -33.15,11.05 -100.44,3.02 -121.53,-4.01 -5.02,-2.01 -17.07,42.18 -16.07,42.18 8.04,7.03 48.21,10.04 55.24,12.05l-1 15.06c-31.14,-3.01 -58.25,-12.05 -82.36,-20.08 15.07,-41.18 23.1,-34.15 3.02,-42.18 -4.02,-2.01 -8.04,-3.02 -11.05,-6.03l7.03 -13.06c3.01,2.01 20.08,11.05 22.09,9.04 3.02,-1 6.03,-14.06 9.04,-17.07l11.05 4.02c12.05,5.02 25.11,7.03 38.16,9.04 13.06,2 16.07,4.01 17.08,-3.02 0,-8.03 4.01,-29.12 3.01,-35.15l32.14 0c0,9.04 4.02,32.14 3.01,35.15l-16.07 1.01 0 -13.06c0,-4.02 2.01,-7.03 -4.01,-7.03 -3.02,3.01 -2.01,6.03 -2.01,12.05 0,3.02 -1.01,12.05 2.01,13.06l12.05 0c16.07,-1.01 15.06,0 13.05,-16.07 -1,-8.03 -1,-5.02 11.05,-7.03 13.06,-2.01 26.11,-6.03 39.17,-10.04 3.01,-1.01 8.03,-2.01 8.03,-5.03 1.01,-3.01 -6.02,-13.05 -7.03,-17.07l6.03 -3.01c8.03,-3.01 15.06,-8.04 22.09,-12.05l16.07 -10.05 9.04 11.05c-5.02,6.03 -15.06,7.03 -15.06,14.06 2.01,2.01 2.01,2.01 5.02,0 10.04,-10.04 22.09,-10.04 15.06,-16.07 -3.01,-3.01 -9.04,-10.04 -10.04,-13.05 16.07,-13.06 14.06,-10.05 3.01,-21.09l-5.02 -5.03c26.11,-29.12 32.14,-39.16 44.19,-78.33l15.07 2.01c0,8.03 -8.04,16.06 -1.01,18.07 5.02,2.01 16.07,6.03 21.09,6.03 1.01,-2.01 3.02,-4.02 0,-5.02l-18.07 -5.02c2.01,-7.03 6.02,-22.1 6.02,-31.14 7.03,2.01 52.23,5.02 56.24,6.03 -1,16.07 -6.02,22.09 2.01,24.1l15.07 3.02c-2.01,12.05 -9.04,26.11 -3.01,25.1 3.01,3.02 5.02,-11.04 9.03,-24.1l15.07 3.01c-2.01,8.04 -11.05,42.18 -15.07,46.2l-33.14 -13.05 6.03 -17.08c2.01,-6.02 -2.01,-9.04 -5.02,-2.01 -14.06,37.16 -24.11,50.22 -43.19,78.34l-11.05 -10.04c-3.01,1 39.17,-45.2 45.2,-98.43l-14.06 -3.01c-6.03,-1 -11.05,-4.02 -11.05,3.01l19.08 4.02c1.01,5.02 -8.03,32.14 -11.05,36.16l-8.03 -3.02c-33.14,-13.05 -28.12,-16.07 -34.15,-4.01 -2.01,6.02 -7.03,12.05 -3.01,13.05l2.01 0c2.01,-1 8.03,-13.05 8.03,-15.06l33.14 14.06c-8.03,17.07 -13.05,26.11 -24.1,42.18l-7.03 8.03 -28.12 -22.09 8.03 -10.04c4.02,2 14.06,10.04 18.08,10.04 3.01,-4.02 16.07,-21.09 11.05,-22.1 -4.02,-4.01 -6.03,7.03 -13.06,15.07 -9.04,-2.01 -14.06,-15.07 -21.09,-6.03 -12.05,18.08 -15.06,9.04 6.03,26.12 -7.03,8.03 -17.08,14.06 -12.05,17.07 4.01,1 9.03,-7.03 16.06,-13.06l27.12 21.09c-1,4.02 -21.09,23.1 -26.11,27.12 -8.04,8.03 -11.05,2.01 5.02,22.09l-20.09 14.07c0,7.03 5.03,4.01 9.04,1l15.07 -11.05c2.01,1.01 8.03,11.05 13.05,14.06 10.05,-5.02 24.11,-20.08 24.11,-20.08 0,-3.02 -12.05,-13.06 -13.06,-16.07 12.05,-10.04 26.11,-31.14 30.13,-35.15 4.02,2.01 17.08,13.05 19.08,9.03 3.02,-5.02 -12.05,-8.03 -15.06,-14.05l12.05 -19.09c0,0 -1,-8.03 -6.02,-2.01 -8.04,18.08 -42.19,57.25 -47.21,61.27 1.01,3.01 11.05,12.05 14.06,15.06l-17.07 15.07 -23.1 -27.12c25.11,-18.08 53.23,-54.23 69.3,-91.39 8.03,2.01 25.11,10.04 34.15,14.06l-11.05 23.1c-1.01,2.01 1,3.01 4.01,3.01 6.03,-7.03 31.14,-68.29 30.13,-82.35 0,-4.02 -35.15,-7.03 -41.17,-8.04 3.01,-6.02 5.02,-35.15 5.02,-42.18l39.17 -1c3.01,-1.01 3.01,-4.02 0,-5.03 -3.02,0 -43.19,-1 -44.19,2.01l-1.01 21.09c-13.05,0 -25.11,-2.01 -36.15,-3.01 0,-4.02 2.01,-19.08 -2.01,-20.09 -8.04,0 3.01,20.09 -9.04,19.09l-15.07 -1.01 -3.01 17.08 -15.06 -3.02c4.01,-46.2 5.02,-88.38 -45.2,-142.61l11.05 -10.04c5.02,3.01 11.05,14.06 15.06,10.04 5.03,-3.01 -20.08,-23.1 -24.1,-27.12l10.04 -11.05 14.06 12.06c2.01,0 13.06,-12.06 16.07,-14.06 3.02,-4.02 0,-9.04 -6.02,-2.01l-11.05 10.04c-12.05,-12.05 -12.05,-16.07 -18.08,-9.04l-9.04 11.05c-6.02,-4.02 -21.09,-15.07 -27.11,-17.08 2,-4.01 8.03,-13.05 9.03,-18.07 -5.02,-3.02 -5.02,0 -10.04,7.03 -1,3.01 -5.02,10.04 -5.02,14.06 20.09,12.05 33.14,19.08 42.18,30.13 -7.03,5.02 -35.15,33.14 -40.17,38.16 -12.05,-8.03 -23.1,-18.08 -37.16,-23.1l4.02 -9.04c3.01,-7.03 7.03,-10.04 -3.02,-13.05 -16.07,-5.02 -30.13,-8.04 -49.21,-9.04 0,-4.02 2.01,-19.08 -2.01,-20.09l-22.09 1.01c-11.05,2 -23.1,4.01 -32.14,8.03l-23.1 9.04 -15.07 8.03 -4.01 4.02c3.01,5.02 4.01,2.01 9.04,-1l10.04 -5.02c20.09,-11.05 50.22,-18.08 73.32,-19.09l0 55.24c0,7.03 1,5.02 14.06,6.03 5.02,1 11.04,4.01 12.05,-2.01l4.02 -17.07c1,-4.02 -1.01,-4.02 -4.02,-4.02 -2.01,3.01 -4.02,15.06 -5.02,19.08l-15.07 -2.01 0 -35.15c15.07,1 30.13,3.01 44.19,8.03 13.06,4.02 -8.03,18.08 -2.01,19.09 2.01,3.01 30.13,11.04 55.24,43.18l-14.06 10.05c-5.02,3.01 -1,7.03 4.02,4.01l13.05 -9.04c4.02,5.02 11.05,18.08 17.08,42.19 0,1 23.1,-3.02 25.1,-5.03 5.03,-5.02 -15.06,-42.18 -20.08,-50.21 -3.02,-6.03 -4.02,-5.02 -7.03,-2.01 2.01,9.04 19.08,30.13 21.09,49.21l-15.07 3.01c-7.03,-32.14 -20.08,-46.2 -32.13,-59.25l25.1 -24.11c42.19,47.21 50.22,90.39 44.19,137.6 -5.02,0 -17.07,-4.02 -20.08,-3.02 -2.01,1.01 -2.01,6.03 -3.02,8.04l-5.02 17.07c-1,3.02 -3.01,4.02 1.01,6.03 4.01,2.01 10.04,-23.1 10.04,-25.11l16.07 3.01c-3.01,15.07 -13.06,39.17 -23.1,51.22 -5.02,-2 -19.08,-13.05 -25.11,-16.07 -9.04,-6.02 -8.03,-7.03 -14.06,0 -12.05,17.08 -31.13,31.14 -51.22,39.17 -26.11,11.05 -27.12,2.01 -24.1,18.08l2 10.04c-15.06,1.01 -28.12,2.01 -43.18,0 -9.04,-1 -9.04,-2 -13.06,0 0,4.02 0,4.02 5.02,5.03 46.2,7.03 95.42,-6.03 129.56,-38.17 1.01,-1 4.02,-4.02 2.01,-6.02 0,0 -1,-4.02 -4.02,0 -14.06,16.07 -59.25,37.16 -71.3,37.16 1,-3.02 -2.01,-11.05 -2.01,-14.06 23.57,-4.59 45.3,-16.15 62.27,-33.15l14.06 -17.07 4.01 3.01 26.12 17.08 -15.07 18.08c-2.01,2 -3.01,2 -4.01,5.02 2,4.01 10.04,10.04 13.05,14.06 -15.84,16.25 -35.06,28.94 -56.24,37.15 -3.01,0 -4.01,1.01 -3.01,4.02l7.03 16.07 -6.02 2.01c-10.05,3.01 -37.16,11.04 -47.21,10.04l-1 -10.04c-1.01,-12.06 1,-9.04 -18.08,-8.04l-16.07 -1c-15.06,0 -39.17,-6.03 -54.23,-11.05l-23.1 -10.04 -1.01 1c-3.01,3.01 1.01,4.02 4.02,6.03l19.08 8.03 10.05 3.01c-2.01,4.02 -6.03,15.07 -6.03,19.09l6.03 2.01c3.01,1 15.06,5.02 18.08,4.01 2,-1 2,-4.01 0,-5.02 -3.02,-2.01 -14.07,-2.01 -17.08,-4.02l4.02 -14.06 31.13 6.03 -4.01 34.15 -8.04 -1.01c-14.06,-2.01 -38.16,-8.03 -50.22,-13.05 0,-3.02 2.01,-6.03 3.02,-8.04 7.03,-16.07 5.02,-7.03 -24.11,-24.1 -6.02,-4.02 -10.04,-8.04 -14.06,-5.02 0,4.01 1.01,3.01 7.03,7.03l19.09 10.04 9.04 4.02 -13.06 32.13c-6.03,0 -15.07,-7.03 -20.09,-9.03 -3.01,0 -4.01,1 -4.01,3.01l-8.04 14.06c-4.02,-1 -19.08,-13.06 -23.1,-12.05 -3.01,1 -8.03,12.05 -11.05,15.06l-18.07 -13.05c-5.03,-4.02 -5.03,-2.01 -7.03,-1.01l0 3.02 23.09 17.07 25.11 14.06c3.02,2.01 6.03,0 5.02,-3.01l-23.09 -13.06c1,-5.02 6.02,-9.04 8.03,-13.06 16.07,10.05 28.12,16.07 42.18,22.1l-14.06 32.14c-35.15,-16.07 -71.31,-32.14 -115.5,-83.36l25.11 -20.09c2.01,-2.01 6.03,-4.02 5.02,-6.02 0,-2.01 -12.05,-16.07 -14.06,-20.09l12.05 -8.04 16.07 20.09c6.03,6.03 21.09,22.1 27.12,26.11l3.01 3.02 -9.04 11.04c-3.01,-1 -7.03,-5.02 -10.04,-8.03 -3.01,-2.01 -6.02,-7.03 -10.04,-8.04 -2.01,0 -3.02,3.02 -5.02,4.02l-9.04 9.04c-2.01,2.01 -3.02,3.01 -3.02,5.02 2.01,2.01 3.02,3.02 5.03,0l12.05 -11.05 5.02 4.02 10.04 9.04c3.02,2.01 2.01,3.01 7.03,3.01l5.02 -7.03c9.04,-11.04 12.06,-11.04 4.02,-17.07 -5.02,-3.01 -24.1,-22.09 -28.12,-27.12l14.06 -11.04c3.01,-3.02 11.05,-10.05 14.06,-11.05l11.05 11.05c3.01,4.01 8.03,0 3.01,-3.02l-10.04 -11.04 15.06 -13.06c0,-2.01 -8.03,-11.05 -10.04,-14.06l13.06 -8.04c10.04,14.06 22.09,26.12 36.15,36.16l6.03 5.02 -8.04 12.05 -20.08 -15.06c-2.01,-2.01 -5.02,-7.03 -9.04,-6.03 -1.01,0 -2.01,1.01 -2.01,3.01l3.01 2.01c1.01,2.01 2.01,4.02 5.02,5.03l5.03 4.01 -23.1 27.12 -16.07 -13.06c-2.01,0 -4.02,2.01 -2.01,4.02 3.01,6.03 25.11,22.1 32.14,27.12 -2.01,7.03 -17.08,18.08 -6.03,18.08l11.05 -15.07 14.06 8.03 6.03 2.01c3.01,-5.02 1,-4.01 -6.03,-8.03 -5.02,-3.01 -25.11,-15.07 -28.12,-19.08l21.09 -25.11 1 -2.01 9.04 6.03c8.04,6.02 5.02,6.02 18.08,-12.06l11.05 -17.07 5.02 3.01 16.07 8.04c-1,4.02 -7.03,13.05 -7.03,18.08l5.02 3.01c23.1,9.04 53.23,13.06 79.34,10.04l12.05 -2.01c3.02,5.03 2.01,15.07 5.03,19.09 3.01,0 21.09,-3.02 22.09,-5.03 1,-2 0,-4.01 -2.01,-4.01 -2.01,-1.01 -12.05,3.01 -16.07,3.01l-3.01 -14.06 9.04 -2.01c17.07,-4.02 32.14,-11.05 47.2,-20.09 6.03,-4.01 2.01,-8.03 -3.01,-5.02 -26.71,16.56 -57.53,25.36 -88.96,25.36 -20.74,0 -41.34,-3.83 -60.68,-11.29l3.01 -5.02c8.03,-20.09 7.03,-9.04 -20.09,-25.11l6.03 -8.03c2.01,-3.02 5.02,-6.03 4.02,-10.05l-13.06 -10.04 -3.01 -2.01c-9.04,-7.03 -15.07,-17.07 -21.1,-26.11 -11.04,-16.07 -17.07,-37.16 -18.07,-57.25l16.06 0c1,19.08 6.03,34.15 15.07,50.21 3.01,5.03 13.05,18.08 18.07,21.1 5.02,-3.02 10.05,-11.05 15.07,-13.06 2.01,1 19.08,16.07 28.12,15.06 4.02,-6.02 5.02,-12.05 8.03,-17.07 4.02,2.01 13.06,3.01 19.09,3.01l0 19.09 2.01 1c6.02,1.01 12.05,0 17.07,-1l15.06 -4.02c0,5.02 4.02,9.04 5.03,14.06 -28.13,14.06 -65.29,5.02 -91.4,-9.04 -1,-1 -1,-2.01 -3.01,-1l-2.01 2.01c0,4.01 13.06,9.03 17.07,11.04 -2.01,6.03 -7.03,13.06 -7.03,18.08 7.03,5.02 47.21,15.07 53.23,9.04 -1,-5.02 -6.02,-3.01 -11.05,-4.02 -12.05,-1 -25.1,-3.01 -36.15,-8.03l6.02 -13.06c24.11,8.04 45.2,9.04 69.3,2.01 16.07,-4.02 12.06,-4.02 5.02,-22.09l-3.01 -4.02c-1,-1.01 1.01,-1.01 -2.01,-1.01 -2.01,1.01 -11.04,6.03 -28.12,6.03l0 -35.15c10.05,0 16.07,-3.01 23.1,-8.04 18.08,-11.04 23.1,-35.15 14.06,-53.23l-7.03 -10.04 11.05 -10.04 4.02 5.02c3.01,3.01 7.03,13.06 9.03,13.06 2.01,1 16.07,-5.03 19.09,-7.03l18.07 -7.03c5.03,7.03 8.04,32.13 7.04,42.18 -1.01,2.01 -2.01,13.05 -1.01,14.06 1.01,1 3.01,2.01 4.02,0 2.01,-3.02 2.01,-14.06 2.01,-18.08l16.07 0c-1.01,15.06 -4.02,28.12 -8.04,39.17l-16.07 -6.03c-2.01,-1 -20.08,-9.04 -23.1,-8.03l-1 4.01c2.01,2.01 14.06,5.03 18.08,8.04l-4.02 7.03 -14.06 20.09c-4.02,-2.01 -23.1,-21.1 -26.11,-24.11 4.01,-4.02 9.04,-12.05 11.04,-17.07 3.02,-7.03 6.03,-14.06 6.03,-23.1l12.05 0c5.02,0 9.04,1 9.04,-4.02 -3.01,-2.01 -1,-2.01 -4.02,-2.01l-16.07 0c-9.04,0 -5.02,2.01 -7.03,12.05 -2.01,9.04 -4.01,16.07 -9.03,22.1 -3.02,4.02 -5.03,8.03 -9.04,11.05 -4.02,3.01 -7.04,6.02 -12.06,8.03l-7.03 3.01c-2,3.02 0,6.03 4.02,5.03 7.03,-3.02 12.05,-7.03 18.08,-12.06l19.08 19.09 7.03 6.02 -15.06 11.05c0,9.04 10.04,0 13.05,-3.01l11.05 -10.05c7.03,-8.03 15.06,-18.07 18.08,-27.11 7.03,1 12.05,6.02 20.08,6.02l0 -1c5.03,-6.03 8.04,-23.1 9.04,-31.14l1.01 -13.05c3.01,0 26.11,2.01 20.08,-5.02l-7.03 -1.01 -34.14 0c0,-13.05 -2.01,-27.11 -9.04,-38.16 -3.02,0 -16.07,5.02 -19.08,7.03 -8.76,-18.84 -24.15,-33.86 -43.19,-42.19l7.03 -13.05 31.14 20.08c2.01,2.01 4.01,-2 2.01,-4.01 -8.04,-8.04 -20.09,-15.07 -30.13,-20.09 -7.03,-3.01 -7.03,-3.01 -9.04,3.01l-6.03 13.06c-19.08,-10.04 -42.18,-7.03 -60.26,0l-6.03 -14.06c10.05,-5.02 20.09,0 18.08,-11.05l-5.02 -25.11c-3.01,-15.06 -1,-14.06 -15.06,-11.04 -31.14,8.03 -63.28,28.12 -82.36,54.23 -4.01,6.03 -5.02,5.02 -1,9.04 4.01,-2.01 13.05,-16.07 18.07,-20.09 3.02,1.01 23.1,21.09 26.12,24.11l-11.05 13.05c-3.01,4.02 1,7.03 4.02,4.02 9.04,-10.04 14.06,-17.07 29.12,-28.12 0,-4.02 -7.03,-13.06 -10.04,-17.07 4.02,-3.02 22.09,-11.05 20.09,-12.06 -1.01,-2.01 -2.01,-4.01 -4.02,-3.01 -15.07,8.04 -25.11,10.04 -22.1,15.07l10.05 15.06 -12.06 9.04c-2,-2.01 -21.09,-18.08 -25.1,-24.1 16.07,-19.09 56.24,-34.15 67.29,-35.16 1,1.01 8.03,31.14 7.03,34.15 -24.11,6.03 -21.09,3.01 -9.04,29.13 31.13,-10.05 75.32,-15.07 106.46,39.17l-14.06 6.02c-2.01,-5.02 -8.04,-15.06 -13.06,-18.08 -2.01,-2.01 -3.01,-1 -5.02,1.01l-11.05 11.05c-4.02,-3.02 -7.03,-7.03 -22.09,-10.05 -15.07,-3.01 -34.15,4.02 -44.2,17.08 -5.02,7.03 -7.03,14.06 -8.03,22.09l-15.07 0c0,-7.03 2.01,-13.05 4.02,-18.08 1.01,-3.01 -1,-6.02 -4.02,-4.01 -3.01,2.01 -7.03,24.1 -5.02,26.11 1.01,3.01 6.03,2.01 9.04,2.01l11.05 0c1,12.05 4.02,17.07 11.05,25.11l-11.05 11.04c-4.02,-6.02 -6.03,-6.02 -9.04,-14.06l-3.01 -4.01c-4.02,-1.01 -15.07,4.01 -19.09,6.02 -3.01,-6.02 -4.01,-15.06 -5.02,-21.09 -0.13,-1.91 -0.22,-3.83 -0.22,-5.74 0,-20.09 8.05,-39.38 22.32,-53.51l7.03 7.03c3.02,3.01 6.03,8.03 10.05,5.02 6.02,-6.03 12.05,-9.04 20.08,-13.06 31.14,-11.04 47.21,7.03 48.21,-1 0,-3.01 -5.02,-4.02 -8.03,-5.02 -6.12,-1.79 -12.48,-2.7 -18.85,-2.7 -16.35,0 -32.16,5.97 -44.43,16.75l-5.02 -5.02c-2.01,-2.01 -7.03,-8.03 -9.04,-8.03 -3.01,0 -4.02,2.01 -5.02,4.01 -10.04,8.04 -11.05,15.07 -15.07,21.1 -7.03,-4.02 -30.13,-11.05 -33.14,-14.06l5.02 -10.05c2.01,-3.01 5.02,-6.02 5.02,-10.04 -4.01,-3.01 -4.01,0 -7.03,4.02l-4.01 6.02c-6.03,11.05 -8.04,13.06 -1.01,16.07l14.06 5.02 -5.02 14.06c-6.03,0 -28.12,-6.02 -35.15,-6.02 0,-5.02 3.01,-10.05 4.02,-15.07 2.01,-4.01 6.02,-12.05 1,-12.05 -5.02,-1 -9.04,23.1 -11.05,26.11 -4.01,-2.01 -12.05,-2.01 -14.06,-4.01 0,-4.02 6.03,-19.09 7.03,-23.1 5.03,-14.06 18.08,-34.15 29.13,-46.2l1 -2.01 8.04 -8.04 -3.02 -3.01c-3.01,0 -16.06,16.07 -19.08,20.09l-2.01 3.01 -13.05 -8.03c1,-3.02 9.04,-11.05 9.04,-13.06 1,-2.01 -1.01,-4.02 -3.02,-3.01l-7.03 9.04c-3.01,3.01 -6.02,5.02 -6.02,9.03l16.07 10.05c0,3.01 -5.02,10.04 -7.03,13.05 -9.04,15.07 -11.05,24.11 -15.07,40.18l-1 2.01c-17.08,-3.02 -20.09,-8.04 -21.09,2 -3.02,13.06 -3.02,26.12 -3.02,40.18 0,8.03 4.02,38.16 7.03,42.18l-14.06 4.02c-2.01,-2.01 -6.02,-22.1 -7.03,-26.12 -2.01,-20.08 -2.01,-40.17 1.01,-61.26 2.01,-12.05 4.01,-15.07 6.02,-23.1 0,-3.01 0,-4.02 -2.01,-5.02l-17.07 -5.02 8.04 -20.09c10.04,-22.09 12.05,-17.07 0,-24.1l-27.12 -14.06 14.06 -22.1 14.06 -17.07 0 -3.02c-4.02,-3.01 -5.02,-1 -10.04,6.03l-8.04 11.05 -15.06 23.1 -5.03 -3.02c-9.03,-5.02 -14.06,-9.03 -15.06,-2 13.06,8.03 29.13,14.06 41.18,21.09l13.05 7.03 -4.01 9.04c-4.47,8.7 -8.19,17.78 -11.05,27.11 -6.02,-2 -14.06,-5.02 -19.08,-5.02l-5.02 12.05c-1,4.02 -6.03,16.07 0,16.07 5.02,-1 4.02,-17.07 8.04,-22.09l34.14 10.04c-5.02,21.09 -8.03,32.14 -8.03,56.24 0,17.08 2.01,41.18 8.03,56.25l-11.05 3.01c-3.01,2.01 -8.03,1 -8.03,6.02 2.01,2.01 2.01,2.01 5.02,1.01l16.07 -5.02 2.01 7.03c6.02,15.06 13.05,30.13 22.09,42.18l-13.05 8.03c-5.02,-5.02 -12.05,-19.08 -15.07,-26.11 -4.01,-8.03 -4.01,-12.05 -9.04,-10.04l-15.06 6.02c-4.02,-6.02 -9.04,-25.1 -11.05,-33.14 -1,-5.02 -1,-6.02 -4.02,-11.04l-19.08 4.01 -3.01 -15.06c0,-5.02 0,-13.06 -6.03,-9.04 0,7.03 3.02,24.1 5.02,31.13 0,3.02 4.02,20.09 6.03,22.1 2.01,2 3.01,1 5.02,0l-6.02 -24.11 15.06 -3.01c1,10.04 9.04,30.13 12.05,40.17 -3.01,3.02 -19.08,8.04 -24.1,10.05l-8.04 3.01 -2.01 -2.01c-9.03,-23.1 -15.06,-46.2 -18.07,-70.3l-1.01 -14.06 -1 -15.07c3.01,2.01 27.12,1.01 34.15,1.01 3.01,0 8.03,1 8.03,-3.02 0,-4.01 -5.02,-3.01 -8.03,-3.01l-34.16 0 1.01 -6.02 0 -7.03 1 -10.05c0,-4.01 -3.01,-6.02 -5.02,-3.01 -2.01,2.01 -2.01,28.12 -2.01,34.15l1.01 11.04c0,27.12 9.04,62.27 19.08,88.38 1,2.01 2.01,6.03 5.02,6.03l17.07 -7.03 10.05 19.08c-18.08,9.04 -21.09,6.03 -15.07,17.08l8.04 11.04c4.01,6.03 4.01,10.05 9.04,7.03l-2.01 -6.02 -11.05 -18.08 5.02 -3.01c8.04,-4.02 13.06,-5.03 11.05,-9.04 -2.01,-5.02 -9.04,-16.07 -9.04,-20.09l16.07 -7.03 17.07 -6.03 2.01 5.03c7.03,15.06 11.05,19.08 19.08,32.13l3.02 -1 18.07 -11.05c0,-4.01 -4.01,-10.04 -7.03,-13.05 -7.03,-13.06 -14.06,-26.12 -18.07,-40.18l18.07 -5.02c3.02,-2.01 -2.01,-13.05 -3.01,-18.08l15.07 -2 7.03 23.1c1,2 2,6.02 5.02,6.02 4.01,0 2.01,-5.02 1,-7.03 -1,-4.02 -7.03,-19.08 -7.03,-23.1 3.01,-3.01 10.04,-2.01 14.06,-4.02 2.01,2.01 4.02,14.07 7.03,22.1l16.07 29.12 3.01 4.02 10.05 12.05c1,1.01 7.03,8.04 9.04,3.02 1,-2.01 -1.01,-3.02 -2.01,-4.02 -12.05,-12.05 -21.09,-24.1 -28.12,-39.17 -17.08,-36.15 1,-35.15 -31.14,-29.12l-20.08 4.01 -2.01 -16.07 0 -33.14 2.01 -15.06 76.32 15.06c8.04,1.01 6.03,-4.02 9.04,-13.06l2.01 -5.02 14.06 6.03c-3.01,5.02 -7.03,23.1 -6.02,32.14 1,5.02 1,11.04 3.01,16.07 1,5.02 2.01,11.04 5.02,14.06 6.03,0 13.06,-5.02 19.08,-6.03l7.03 10.04c9.04,12.06 8.04,9.04 17.08,0 13.05,-13.05 8.03,-5.02 1,-19.08 -5.02,-9.04 -6.02,-21.09 -3.01,-30.13 9.04,-24.1 39.17,-32.14 60.26,-18.08 25.11,16.07 20.09,56.25 -12.05,66.29 -15.07,4.02 -15.07,-6.03 -14.06,21.09l-12.06 -1c-2,-1.01 -8.03,-4.02 -10.04,-3.02 -2.01,1.01 -7.03,15.07 -8.03,17.08l-6.03 -3.02c-11.05,-5.02 -17.07,-14.06 -21.09,-13.05l-13.06 13.05c-3.01,-1 -11.04,-12.05 -12.05,-15.06 -9.04,-13.06 -17.07,-33.15 -16.07,-50.22 0,-6.02 -2.01,-5.02 -8.03,-5.02l-53.23 0c-10.04,0 -6.03,5.02 -5.02,6.03l40.17 0c1,33.14 14.06,62.27 38.16,85.37l16.07 13.05 -2.01 3.02 -18.07 25.1 -16.07 -11.04 -8.04 -8.04 -15.06 -18.08c-6.03,-8.03 -2.01,-8.03 -22.1,4.02l-12.05 -20.09c-1,-2 -4.02,-9.03 -6.03,-10.04 -3.01,0 -4.01,2.01 -3.01,4.02 4.02,10.04 9.04,18.08 14.06,26.11 3.02,6.03 10.05,14.06 13.06,18.08l-3.01 2.01 -41.18 33.14 -14.06 -20.09 -11.05 -17.07c-2.01,-2.01 -3.01,-2.01 -5.02,0 0,4.02 1,3.01 2.01,6.03l9.04 14.06 -9.04 7.03c-10.05,6.02 -10.05,3.01 6.02,23.1l2.01 2c-3.01,4.02 -24.1,19.09 -28.12,23.1 -62.27,-81.35 -77.33,-150.64 -63.27,-243.04 9.04,1 27.12,6.02 35.15,6.02 0,5.03 -5.02,23.1 -2.01,26.12l20.09 2.01 20.08 2 -1 29.13 1 9.04 -12.05 1c-3.01,1.01 -9.04,0 -8.03,4.02 0,4.02 13.05,1 21.09,1l2.01 14.07c0,2 0,5.02 2.01,6.02 7.03,4.02 2.01,-14.06 1,-17.07 -2.01,-18.08 -2.01,-27.12 -1,-46.2l4.01 -25.11c0,-2.01 -1,-2.01 -2,-3.01 -2.01,0 -3.02,1 -4.02,3.01l-2.01 18.08 -36.16 -3.01c-1,-18.08 10.05,-50.22 17.08,-68.3 8.03,2.01 15.06,8.04 20.08,6.03l1.01 -3.02c-5.02,-3.01 -38.17,-17.07 -43.19,-18.07 0,0 -15.06,33.14 -9.04,32.13 5.02,4.02 8.04,-18.07 12.05,-25.1l14.07 6.02c0,3.02 -14.07,35.15 -13.06,44.19 -9.04,0 -28.12,-7.03 -36.16,-6.02 1.01,-19.09 34.15,-97.42 44.19,-103.45 3.02,2.01 15.07,10.04 17.08,10.04 3.01,-1 27.11,-36.15 36.15,-41.17l25.11 24.1c-4.02,6.03 -30.13,29.13 -29.13,38.17 8.04,6.02 26.12,16.07 33.15,22.09 -9.04,13.06 -11.05,16.07 -18.08,32.14 -1,3.01 0,3.01 3.01,5.02l15.07 5.02 -5.02 14.06c-1.01,3.02 0,2.01 1,4.02l3.01 0 7.03 -20.09 -18.07 -8.03 6.02 -13.06 9.04 5.02c4.02,2.01 6.03,4.02 10.04,4.02l1.01 -2.01c0,-4.02 -2.01,-4.02 -8.04,-7.03l-9.04 -5.02 3.02 -5.02c6.02,-10.05 15.06,-21.09 23.1,-30.13l2.01 -2.01 4.01 -5.02 9.04 8.03c2.01,3.02 5.02,7.03 9.04,4.02l4.02 -4.02c42.18,-36.15 97.42,-54.23 153.66,-45.19 7.03,1 11.05,3.01 11.05,-3.02 -5.02,-3.01 -12.05,-3.01 -18.08,-4.01l2.01 -13.06 15.06 1.01c5.03,1 8.04,-3.02 4.02,-4.02 -12.05,-5.02 -20.09,1 -18.08,-9.04 0,-3.01 3.02,-12.05 0,-14.06 -3.01,-2.01 -19.08,-2.01 -21.09,-2.01 0,-3.01 2.01,-19.08 -2.01,-20.09 -7.03,-1 -46.2,2.01 -52.22,6.03l8.03 42.18c2.01,2.01 6.03,2.01 5.03,-2.01l-3.02 -17.07 12.05 -2.01c3.02,0 10.05,1 9.04,-4.02 0,-2.01 -2.01,-2.01 -5.02,-2.01l-17.07 3.02 -3.02 -14.06c13.06,-3.02 27.12,-4.02 42.19,-5.02 0,24.1 -3.02,19.08 12.05,21.09 4.02,0 8.03,-1.01 11.05,1l-4.02 34.15 -32.14 0 -1 -15.07 19.08 -1c2.01,-2.01 0,-3.01 0,-5.02 -25.11,1 -26.11,-2.01 -24.11,11.05l1.01 10.04c-6.03,1 -27.12,4.01 -31.14,6.02l-6.02 -17.07c-1.01,-2.01 -3.02,-1 -5.02,0 0,7.03 5.02,14.06 5.02,19.08 -3.02,1.01 -24.11,8.04 -29.13,11.05l-8.03 -15.07c-3.02,-3.01 -6.03,0 -5.02,3.02l8.03 15.06c-11.05,5.02 -19.08,13.06 -26.11,17.08 -7.03,-11.05 -28.12,-33.15 -38.17,-45.2 -4.01,0 -4.01,0 -5.02,3.02l12.05 14.06c-9.03,9.04 -22.09,19.08 -29.12,30.12 -2.01,2.01 1,7.04 6.02,1.01 5.03,-6.03 21.1,-23.1 27.12,-26.11 6.03,6.02 17.08,22.09 23.1,26.11l-10.04 9.04c-5.02,-2.01 -12.05,-17.08 -17.08,-12.05 -5.02,5.02 -22.09,23.1 -24.1,28.12l-19.08 -12.05 -11.05 -7.03c1.01,-6.03 31.14,-33.15 30.13,-36.16 0,-3.01 -30.13,-31.13 -32.14,-31.13 -5.02,1 -35.15,37.16 -37.16,42.18l-13.05 -9.04c7.03,-10.05 48.2,-59.26 58.25,-60.26 2.01,3.01 23.1,29.12 26.11,29.12 2.01,0 17.07,-11.04 20.09,-14.06l34.14 49.22c12.05,0 -4.01,-13.06 -6.02,-19.09 4.01,-1 6.02,-3.01 9.04,-5.02 12.05,-6.02 12.05,-2.01 1,-23.1 19.08,-12.05 26.11,-2.01 15.07,-23.1 -3.02,-7.03 -2.01,-11.04 -8.04,-8.03 0,4.02 5.02,15.06 7.03,18.08 -3.01,3.01 -21.09,9.04 -21.09,12.05l9.04 17.07 -15.07 8.04 -20.08 -29.13 18.08 -10.04c7.03,-4.02 3.01,-7.03 0,-6.03 -7.04,2.01 -34.15,20.09 -42.19,27.12 -3.01,-1.01 -21.09,-23.1 -24.1,-27.12 11.05,-8.03 36.16,-26.11 46.2,-30.13 2.01,5.02 7.03,10.05 7.03,14.06 -4.02,2.01 -22.1,12.05 -23.1,14.06 0,2.01 1,5.03 4.02,3.02 5.02,-4.02 28.12,-13.06 26.11,-17.08l-9.04 -16.07c21.09,-9.03 60.26,-27.11 80.35,-27.11l4.01 18.08c2.01,2 3.02,0 5.03,0 0,-7.04 -2.01,-14.07 -3.02,-20.09l24.11 -3.01 4.01 35.15c-9.04,0 -17.07,2.01 -25.11,3.01l-23.09 5.02c0,-4.02 -3.02,-13.05 -6.03,-18.08 -4.02,0 -29.13,8.04 -30.13,11.05 -1,1.01 -1,3.01 1,3.01 3.02,2.01 17.08,-7.03 26.12,-8.03 1,7.03 16.07,49.21 16.07,53.23l-20.09 7.03c0,5.02 6.03,15.06 8.03,20.09 2.01,5.02 5.03,2 5.03,0l-7.03 -17.08 15.06 -5.02c12.05,-4.02 4.02,-8.03 -5.02,-41.18 47.2,-15.06 114.49,-9.04 126.54,-5.02 3.02,1.01 5.02,-3.01 2.01,-4.02 -6.02,-3.01 -20.09,-4.01 -25.11,-4.01 3.02,-26.12 9.04,-22.1 -30.13,-22.1 0,0 -4.01,3.02 0,5.02 2.01,1.01 24.11,0 26.12,2.01l-1.01 14.06 -48.2 0 -4.02 -34.14 28.12 -2.01 1 0c1.01,-2.01 4.02,-1.01 1.01,-5.02 -84.37,0 -165.72,31.13 -224.97,89.38 -58.78,55.89 -92.09,133.55 -92.09,214.68 0,27.93 3.98,55.81 11.75,82.62l-0.01 -0.02z"/>
 </g>
</svg>
