<?xml version="1.0" encoding="UTF-8" standalone="no"?>
<svg
   viewBox="0 0 200 40"
   version="1.1"
   id="svg1"
   sodipodi:docname="logo.svg"
   inkscape:version="1.4 (86a8ad7, 2024-10-11)"
   xmlns:inkscape="http://www.inkscape.org/namespaces/inkscape"
   xmlns:sodipodi="http://sodipodi.sourceforge.net/DTD/sodipodi-0.dtd"
   xmlns="http://www.w3.org/2000/svg"
   xmlns:svg="http://www.w3.org/2000/svg">
  <defs
     id="defs1" />
  <sodipodi:namedview
     id="namedview1"
     pagecolor="#505050"
     bordercolor="#eeeeee"
     borderopacity="1"
     inkscape:showpageshadow="0"
     inkscape:pageopacity="0"
     inkscape:pagecheckerboard="0"
     inkscape:deskcolor="#505050"
     inkscape:zoom="90.509668"
     inkscape:cx="189.2284"
     inkscape:cy="35.438203"
     inkscape:window-width="1920"
     inkscape:window-height="974"
     inkscape:window-x="-11"
     inkscape:window-y="-11"
     inkscape:window-maximized="1"
     inkscape:current-layer="svg1"
     showguides="true">
    <sodipodi:guide
       position="195.41424,2.744911"
       orientation="0,-1"
       id="guide1"
       inkscape:locked="false" />
    <sodipodi:guide
       position="150.9231,10.853942"
       orientation="0,-1"
       id="guide2"
       inkscape:locked="false" />
    <sodipodi:guide
       position="47.390625,8.609375"
       orientation="0,-1"
       id="guide3"
       inkscape:locked="false" />
    <sodipodi:guide
       position="82.710937,5.1484375"
       orientation="1,0"
       id="guide4"
       inkscape:locked="false" />
  </sodipodi:namedview>
  <path
     d="m 11.7,30.6 -2.5,4.1 c 7,6 24.3,7 24.2,-5.7 C 33.2,16.3 16,22.2 16,15.7 16,9.2 25.5,9.3 30.2,13.1 L 32,9 C 26,4 10.6,5 11,16 c 0.4,11 17,5.3 17,13 0,7 -10,5.8 -16.3,1.6 z M 0,29 H 18 V 24 H 5 V 0 H 0 Z M 46.3,16 h -6.8 c -0.4,0 -0.9,-0.1 -0.9,-1 V 1.6 c 0,-0.7 3,-0.8 3,0 v 12 h 4.7 c 0.8,0 0.6,2.4 0,2.4 z m 11.5,-5.8 c 0,0.8 -0.2,0.7 -0.8,1 h -6.3 c 0,3.7 3.8,2.9 6.3,2.2 0.5,0 0.5,1.7 0.1,2 -1.2,1 -9.3,2.9 -9.3,-4.8 0,-7.8 10.2,-8.1 10,-0.4 z M 55,9.4 c 0,-3.5 -4.3,-3.3 -4.3,0 z M 69,7.2 h -1.2 c 1,3.6 -3.1,5.7 -5.4,4.6 -0.6,1 -0.3,1.4 0.8,1.6 6.8,0.1 6.2,4.1 3.8,5.6 -2.3,1.3 -6.7,1 -7.3,-1.7 -0.2,-0.7 0.2,-1.5 0.9,-2.4 -0.3,-1.2 -1.5,-2 0,-4 -0.579827,-0.619096 -0.870476,-1.4547122 -0.8,-2.3 0,-4 4.2,-4 6,-3.6 H 69 c 0.6,0 0.6,2.2 0,2.2 z m -3.7,0 c -1.8,-1.8 -4.1,1 -2.6,2.6 1.6,1.6 4.1,-1 2.6,-2.6 z m 1.1,9.5 c 0.3,-1.7 -4.4,-2.1 -4.5,0 -0.1,2.1 4.2,1.7 4.5,0 z m 13.3,-1 c 0,0.6 -2.4,1 -2.4,0.5 V 14.8 C 70.9,20.3 65.9,9.4 76.8,9.4 V 8 C 76,5.6 71.6,8 71.4,7.9 c -0.6,0 -0.7,-1.5 -0.2,-2 0,-0.7 8.5,-3.5 8.5,2.9 z m -2.9,-4.4 c -5.6,-0.7 -5,5.3 0,1.7 z m 8.6,4.3 c 0,0.7 -2.8,0.7 -2.8,0 v -15 c 0,-0.8 2.8,-0.8 2.8,0 z m 7.8,-0.5 c -0.4,-0.4 -0.3,-2.2 0,-2.4 2.4,0.7 6.6,2.2 6.6,-1.1 0,-3.3 -6.4,-1.9 -6.5,-6.3 0,-4.5 5.1,-5.2 8.2,-3.5 0.4,0.4 0.4,2.5 -0.1,2.5 -1.9,-1.4 -5.3,-1.6 -5.3,1 0,2.5 6.5,1.2 6.5,6.4 0,5.1 -7,5.3 -9.4,3.4 z m 17.4,0.7 c 0,0 -0.2,0 -0.3,0.2 -3,0.5 -4.7,-0.4 -5.1,-3.4 V 7.3 H 104 c -0.6,0 -0.7,-2.3 0,-2.3 h 1.2 V 2.7 c 0,-0.7 3,-0.7 3,0 V 5 h 2.1 c 0.7,0 0.7,2.3 0,2.3 h -2.2 v 4.8 c 0,2.4 1.8,1.7 2.4,1.4 0.4,0 0.4,1.9 0,2.3 z m 10.8,-0.2 c 0,0.7 -2.4,0.6 -2.4,0 v -0.8 c -5.4,5.5 -12.4,-5.5 -0.4,-5.4 0,-5 -5.4,-1 -5.7,-1.6 -0.3,-0.2 -0.5,-1.5 0,-2 2.5,-1.5 8.5,-2.3 8.5,3 z m -2.8,-4.3 c -5.7,-1.5 -5.4,5.6 -0.1,1.7 z m 11,4.7 c -3,0.5 -4.7,-0.4 -5.1,-3.4 V 7.3 h -1.2 c -0.6,0 -0.6,-2.3 0,-2.3 h 1.2 V 2.7 c 0,-0.7 3,-0.7 3,0 V 5 h 2.1 c 0.7,0 0.7,2.3 0,2.3 h -2.2 v 4.8 c 0,2.4 1.7,1.7 2.4,1.4 0.7,1 0.2,2 -0.2,2.5 z m 12.3,-0.4 c 0,0.7 -2.5,0.7 -2.5,0 v -1.2 c -4,2.6 -6.3,1.3 -6.8,0 -0.5,-1.3 -0.5,-6.3 -0.5,-9 0,-0.7 3,-0.7 3,0 v 7 c 0.5,1.6 1.8,1.6 3.9,-0.2 V 5.4 c 0,-0.7 2.9,-0.7 2.9,0 z m 10,-2.9 c 0.1,3.8 -5.4,4.1 -7.4,2.7 -0.4,-0.4 -0.4,-2 -0.1,-2.1 2,0.6 5.2,1.7 5.2,-0.7 0,-2.4 -5.2,-1.5 -5.2,-4.8 -0.1,-3.3 3.4,-3.9 6.7,-2.4 0.5,0.3 0.4,2 0.2,2 -0.2,0.2 -4.3,-1.8 -4.4,0.3 0,2 5,1.2 5,5 z m 19.9,-2.2 c -0.1,7.7 -12.1,7.8 -12.1,0.1 v -9 c 0,-0.7 3,-0.7 3,0 0,3.3 -0.5,7 0.2,10.3 0.8,2.6 4.8,2.6 5.7,0 0.5,-3.4 0.2,-7 0.2,-10.3 0,-0.7 3,-0.7 3,0 z m 14.9,5 c 0.1,0.8 -3,0.8 -3.2,0.1 l -1,-3 H 177 l -0.9,3 c -0.2,0.8 -3,0.7 -3,-0.1 l 4.8,-13.8 c 0.3,-1 3.8,-1 4.1,0 z m -7,-11.6 -2,6.4 h 4.1 z m 9.8,12.1 c -0.4,0 -0.9,-0.1 -0.9,-1 V 2.1 c 0,-0.8 0.6,-1 1,-1 5.31998,-0.28005536 7.7399,1.4274425 7.72004,3.4399947 C 197.30018,6.552547 197,7.2 195.7,8.1 c 1.7,0.8 2.47998,1.7180463 2.44007,3.739982 C 198.10016,13.861917 198.79971,16.480029 189.5,16 Z m 2.1,-12.6 v 3.9 c 2.44345,0.414925 3.3639,-0.2805295 3.40781,-1.8189046 C 195.05171,3.9427203 194.29486,2.8071305 191.6,3.4 Z m 0,6.1 v 4.2 c 2.55417,0.03089 3.87067,-0.07476 3.81046,-2.027739 C 195.35024,9.7192827 193.94775,9.4806001 191.6,9.5 Z M 43.077903,37.176777 h -3.7 c -0.1,0 -0.401232,-2e-6 -0.4,-0.4 L 39,29.6 c 9.24e-4,-0.299999 0.3,-0.4 0.4,-0.4 h 3.7 c 0.3,0 0.3,0.9 0,0.9 h -3 v 2.4 h 2.6 c 0.2,0 0.3,0.9 0,0.9 H 40 l -0.0221,2.776777 h 3 c 0.4,0 0.3,0.9 0,0.9 z m 6.037722,-0.104902 c 0,0.2 -1,0.2 -1.1,0 l -1.4,-2.2 -1.3,2.2 c -0.1,0.2 -1,0.2 -1,0 0.6125,-1.054687 1.1625,-1.953125 1.7,-2.8 -0.498438,-0.9 -1.051563,-1.792188 -1.6,-2.7 0,-0.2 1,-0.2 1,0 l 1.245313,1.976563 1.354687,-1.976563 c 0.1,-0.2 1,-0.2 1,0 -0.64375,1.015625 -1.123437,1.745313 -1.7,2.6 z m 1.796875,-0.9 0.0055,-3.971252 h -0.8 c -0.3,0 -0.3,-0.8 0,-0.8 l 0.77734,0.01105 -0.0055,-1.228747 c -0.0013,-0.299997 0.997277,-0.299988 1,0 l 0.01105,1.217135 1.422661,-0.01105 c 0.29999,-0.0023 0.3,0.8 0,0.8 h -1.4 l -0.01105,3.082864 c -0.0047,1.299992 0.5,1.4 1.5,1 0.1,0 0.1,0.6 0,0.8 -1.4,0.4 -2.5,0 -2.5,-0.9 z m 6.784375,-3.723438 c -1,-0.3 -1.4,0.1 -2,1 V 36.9875 c 0,0.3 -1,0.3 -1,0 v -5.439063 c 0,-0.2 0.9,-0.2 0.9,0 v 0.8 c 1.015625,-1.165625 2.084375,-0.828125 2.084375,-0.728125 0.2,0.1 0.315625,0.828125 0.01563,0.828125 z M 62.71875,37.0875 c 0,0.2 -0.8,0.2 -0.8,0 v -0.6 c -2.699587,2.540934 -5.632808,-3.015995 -0.2,-2.6 v -1 c -0.8,-1.1 -1.823223,-0.533709 -2.823223,-0.133709 -0.2,0 -0.2,-0.6 0,-0.7 1.5,-0.9 2.823223,-0.966291 3.723223,0.433709 z m -1,-2.5 c -3.703125,-0.712158 -2.1,3.4 0,1.1 z m 7.140625,2.446875 c 0,0.3 -1,0.3 -1,0 l -0.04687,-0.29375 c -4.559837,2.545621 -5.340921,-6.190796 0,-4.1 l 0.04687,-3.50625 c 0.004,-0.299973 1,-0.3 1,0 z M 67.8125,33.640625 c -3.265625,-2.417182 -3.527187,4.49208 0,2.3 z m 4.019698,3.368972 c 9.17e-4,0.299999 -0.999083,0.299999 -1,0 L 70.815625,31.5875 c -6.11e-4,-0.199999 0.999389,-0.199999 1,0 z m -0.0543,-6.854354 c -0.1,0.2 -0.9,0.2 -1,0 v -1 h 1 z M 78.3,31.385937 c 0.2,0 0.296919,1.6e-5 0.3,0.3 l 0.05469,5.325 c 0.0031,0.299985 -0.99656,0.299981 -1,0 L 77.6,32.240625 h -2.8 v 3 c 0,1.632812 0.5,1.3 1.5,1 0.2,0 0.2,0.6 0,0.8 -1.1,0.4 -2.4,0.2 -2.4,-0.9 v -3.925 H 73 c -0.3,0 -0.3,-0.8 0,-0.8 l 0.901562,-0.02344 v -1.275001 c 0,-0.3 0.898438,-0.276562 0.898438,0.02344 v 1.245312 z m 0.284375,-1.229354 h -1 v -1 h 1 z m 4.123438,7.091854 c -3.5,0 -3.799219,-5.949218 7.81e-4,-5.849218 3.8,0 3.499219,5.949218 -7.81e-4,5.849218 z m -0.0094,-5.057031 c -2.3,0 -2.192188,4.257031 0.0078,4.257031 2.2,0 2.292188,-4.257031 -0.0078,-4.257031 z m 8.746882,4.807468 c 0,0.3 -1,0.3 -1,0 0,0 0.07734,-3.509359 -0.14532,-4.120408 -0.3,-0.7 -1.511049,-0.634272 -2.311049,0.365728 l -0.01105,3.755243 c -8.83e-4,0.299999 -1.000608,0.299999 -1,0 l 0.01105,-5.455243 c 4.06e-4,-0.199999 0.9,-0.2 0.9,0 v 0.8 c 1.5,-1.7 3.111049,-0.588388 3.311049,0.01161 0.3,0.7 0.24532,3.043068 0.24532,4.643068 z m 6.343068,-4.212937 c -0.9,-1.2 -1.872763,-3.689062 1.227237,-3.589062 2.99999,0 2.07276,2.489062 0.07276,3.689062 0.614971,0.747475 1.195,1.449319 1.91161,2.1 0,0 0.6,-0.3 0.6,-1.9 0,-0.3 1,-0.3 1,0 0.1,1 -0.3,1.8 -0.8,2.6 0.4,0.4 0.88438,0.453125 1.28438,0.653125 0.1,0 0.3,0.8 0,0.9 -0.8,0 -1.28438,-0.353125 -1.88438,-0.853125 -3.699998,2.5 -7.61161,-1 -3.41161,-3.6 z m 0.8,-0.5 c 2.499997,-1.5 1.327237,-2.289062 0.327237,-2.289062 -1,0 -1.627237,0.589062 -0.327237,2.289062 z m 1.811607,3.4 -2.111607,-2.3 c -2.7,1.9 0.311612,4.1 2.111607,2.3 z m 8.18438,1.301563 c 0,0.3 -1,0.3 -1,0 v -7.587825 c 0,-0.3 1,-0.3 1,0 z m 7.96875,-0.2 c 0,0.5 0,0.4 -1.1,0.4 -0.5,-0.2 -3.5,-6.309359 -3.8,-6.909359 V 36.9875 c 0,0.3 -1,0.3 -1,0 v -7.509359 c 0,-0.5 0.3,-0.3 1.40001,-0.3 1.09999,1.7 3.2,6.009359 3.5,6.609359 v -6.376777 c 0,-0.3 1,-0.3 1,0 z m 4.47165,-6.720971 0.0221,6.920971 c 9.6e-4,0.299998 -1,0.3 -1,0 l -0.0221,-6.920971 h -2.2 c -0.3,0 -0.3,-0.9 0,-0.9 h 5.4 c 0.3,0 0.3,0.9 0,0.9 z m 3.9596,7.167846 c -0.13894,-5.9e-5 -0.39757,-7e-6 -0.4,-0.4 l -0.0442,-7.265165 c -0.002,-0.299994 0.3,-0.4 0.4,-0.4 h 3.7 c 0.3,0 0.3,0.9 0,0.9 h -3 v 2.4 h 2.6 c 0.2,0 0.3,0.9 0,0.9 h -2.6 l 0.0442,2.865165 h 3 c 0.3,0 0.29218,1.001562 -0.008,1.001562 z m 10.66875,-0.04687 h -0.8 c -0.75412,-1.403165 -1.87791,-3.620971 -1.87791,-3.620971 h -1.4 l -0.0221,3.420971 c -0.002,0.299994 -1.0009,0.299999 -1,0 l 0.0221,-7.420971 c 9e-4,-0.299999 0.2,-0.4 0.3,-0.4 5.52062,-0.475365 4.06916,3.918678 2.83125,4.101562 0.7912,1.507107 1.94666,3.719409 1.94666,3.919409 -0.1,0.1 0,0 0,0 z m -4.07791,-7.020971 v 2.5 c 3.14212,0.567816 3.1731,-3.123644 0,-2.5 z m 6.72481,3.78437 v 3.020971 c 0,0.3 -1,0.3 -1,0 l -0.0221,-7.320971 0.1,-0.4 c 5.66855,-0.801126 5.33709,5.155806 0.9221,4.7 z m -0.0221,-3.9 0.0221,3.1 c 2.99177,0.256932 3.23596,-3.411612 -0.0221,-3.1 z m 8.20022,7.158471 c -4.5,0 -4.27812,-8.015625 0.12188,-8.015625 4.4,0 4.37812,8.015625 -0.12188,8.015625 z m 0.12188,-7.1 c -3.2,0 -3.4,6.278125 -0.1,6.278125 3.3,0 3.3,-6.278125 0.1,-6.278125 z m 5.43125,7.109375 c -0.1,0 -0.4,0 -0.4,-0.4 l 0.008,-7.664602 h 1.1 l -0.008,7.164602 h 2.8 c 0.3,0 0.3,0.9 0,0.9 z m 7.96875,0 c 0,0 -0.30172,-4e-6 -0.3,-0.4 l 0.0312,-7.273437 c 0.001,-0.299998 0.3,-0.4 0.3,-0.4 7.1,-0.2 6.96875,8.573437 -0.0312,8.073437 z m 0.63125,-7.173437 -0.0312,6.273437 c 5.1,0.4 5.13125,-6.273437 0.0312,-6.273437 z M 171.15313,34.675 h -3.5 c 0.10312,2.04375 1.8375,1.7625 3.46875,1.2875 0.2,0 0,0.8 0,0.8 -1.60626,0.796875 -4.36875,0.8125 -4.46875,-2.4875 4.8e-4,-3.4 4.46349,-4.188951 4.8538,-0.155806 0,0.5 -0.24844,0.559379 -0.3538,0.555806 z m -0.6,-0.7 c 0,-2.4 -2.9,-2.4 -2.9,0 z m 3.69163,-2.575563 h 1.2 c 0.2,0 0.3,0.8 0,0.8 h -1.2 l 0.011,4.799437 c 6.9e-4,0.299999 -1,0.3 -1,0 l -0.011,-4.799437 h -0.8 c -0.3,0 -0.3,-0.8 0,-0.8 h 0.8 c 0,-2.6 0.2,-2.7 2.6,-2.5 0.1,0 0.1,0.8 0,0.8 -1.6,-0.4 -1.6,0.4 -1.6,1.7 z M 187.1,37 c 0,0.3 -0.99901,0.299998 -1,0 -0.008,-2.292438 0.47028,-5.770278 -2.5,-3.8 v 3.719997 c 0,0.3 -1,0.280003 -1,-0.02 v -5.4 c 0,-0.2 0.9,-0.2 0.9,0 v 0.8 c 4.37126,-2.310753 3.62501,3.049517 3.6,4.7 z m 5.46742,-1.588952 c 0.0331,2.099049 -2.4867,1.790078 -3.66742,1.488952 -0.2,-0.2 -0.1,-1 0,-1 1.52829,0.279592 2.65701,0.670985 2.66798,-0.533709 0.011,-1.204694 -2.6354,-0.333708 -2.6354,-2.533708 0,-2.2 2.86742,-1.332583 3.26742,-1.132583 0.2,0.2 0.2,0.9 0,0.9 -0.9,-0.5 -2.57159,-1.033263 -2.54363,0.299437 0.028,1.332699 2.8779,0.412562 2.91105,2.511611 z M 39,22 h 160 v 2 H 39 Z m 142.09119,12.641641 h -3.5 c 0.10312,2.04375 1.8375,1.7625 3.46875,1.2875 0.2,0 0,0.8 0,0.8 -1.60626,0.796875 -4.36875,0.8125 -4.46875,-2.4875 4.8e-4,-3.4 4.46349,-4.188951 4.8538,-0.155806 0,0.5 -0.24844,0.559379 -0.3538,0.555806 z m -0.6,-0.7 c 0,-2.4 -2.9,-2.4 -2.9,0 z m 17.55538,0.711689 h -3.5 c 0.10312,2.04375 1.8375,1.7625 3.46875,1.2875 0.2,0 0,0.8 0,0.8 -1.60626,0.796875 -4.36875,0.8125 -4.46875,-2.4875 4.8e-4,-3.4 4.46349,-4.188951 4.8538,-0.155806 0,0.5 -0.24844,0.559379 -0.3538,0.555806 z m -0.6,-0.7 c 0,-2.4 -2.9,-2.4 -2.9,0 z"
     id="path1"
     sodipodi:nodetypes="cccsccssccccccccssssscsscccccsccccscccccccccsscccssssscccccsscccsssssccscccsscccccsscsscsscscccssccccssccccccsscsscsscsccsscsssccssscccsccccccsssccsscccccccccccccccssczczccczccczccssssssccssccscccccccccccccccccsscsscsscsccsccssssccccccccccccccccccccsscccccssscscccsccsccsccscsscsscsccscccsssscscccssssccsccccscccccccsccscscscssccsssccssscssscssscsssccsccssccscsccccscccccccccscscsccccsssscscscscssscsscccccccccscccccscscsscsscccccccscsscccccsczcczccczzcccsccccccccccccccccccccc" />
</svg>
