<svg xmlns="http://www.w3.org/2000/svg" viewBox="0 0 1500 1500" fill-rule="evenodd"><path d="m157 740 128 31c20 57 11 108 45 178 21 45 61 90 94 128 39 44 86 62 135 88 21 11 57 21 81 30 38 15 64 12 90 22 5 5 15 116 25 123 16 11 18-34 23-47 5-15 8-46 11-63 3-24 33-17 52-20 25-5 35-10 58-17 38-13 67-24 103-45a473 473 0 0 0 222-368l124-25c26-20-41-23-45-24-19-3-46-6-64-10-22-15-21-65-37-113a424 424 0 0 0-288-304c-55-20-62-22-121-29-43-6-15-86-36-114-13-17-24 100-29 108-19 30-298 9-411 333-8 21-22 109-32 117-6 6-128 21-128 21zm978 52c-40-23-53 68-63 91-16 37-52 78-60 98-8 19-67 57-89 68-16 8-116 40-118 40l-2 44c143-31 206-83 195-72-84 79-212 57-201 110 6 31 57 3 77-2 99-26 192-81 247-170 24-37 47-106 59-149 7-27 30-67-6-65-47 1-34 24-42 64-5 25-18 52-29 75-20 43-45 57-20 23 18-24 60-131 52-155zm-421 338c6-5-2-29-5-36-5-11-21-10-32-14-20-6-45-17-65-25-22-9-68-35-86-51-19-17-17 2-27-2l-61-112c-15-30-18-122-69-102-5 9 18 88 23 99 7 14 10 28 18 45 4 7 24 34 24 37-1 29-43-65-44-69-13-39-17-61-26-98-6-25-53-53-34 30 6 27 15 73 26 97 25 51 66 103 106 143 36 37 110 77 160 89 15 3 92 22 99 13 28-34-50-47-66-51-34-10-58-17-91-33-48-22-62-52-31-26 24 21 161 71 181 66zM364 708c25 14 46 1 52-36 61-260 278-259 293-284 5-12 8-30 6-43l-189 65-2-5 192-68 7-28c-35-18-207 54-251 97a445 445 0 0 0-150 287c-4 27 34 34 36-8 13-98 89-181 78-168-25 35-81 128-72 191zm426-358c-2 5 4 32 8 36 7 7 28 7 38 9 25 5 44 16 68 26 25 10 38 16 60 32 11 8 16 11 25 22 13 15 24 4 31 10 3 9-13 12 0 26 80 129 69 220 124 191-21-70-40-137-69-200l6-3c29 65 53 133 71 201 8 14 33 13 27 12 48 1-53-297-252-371-20-11-145-57-146-25-1 35 33 26 57 34 26 8 42 12 68 23 66 29 88 69 22 16-14-11-125-46-138-39zm-31 478c0 91-4 182-4 271 0 46 4 89 4 133 0 94 14 20 20-20 11-80 19-165 29-246 7-66 68-199-49-138zm-19-153c-83 22-72 151 36 134 94-15 53-157-36-134zm96 0c-30 9 8 65 26 65l122-1c69 0 182 7 245 0 41-5-164-30-182-33-31-5-194-36-211-31zm-180 76c-37 4-74 2-112 2-39 0-75 5-112 5-42 0-65-9-110-1-44 7 52 16 62 18 59 14 136 21 199 32 26 5 76 19 98 4 25-17-10-62-25-60zm84-484c-7 17-27 173-32 205s-39 185-16 199c14 8 28-1 40-9 15-9 8-33 8-50l1-119c0-28 5-216-1-226zm36 16c40 20 49 14 86 23 278 79 329 351 347 406 20-22-25-142-39-169-48-142-225-255-394-260zM298 775c-4 125 50 210 133 296 37 39 78 68 128 88 26 10 144 60 163 42 13-12-130-42-152-52-60-27-84-38-128-87-34-38-68-81-90-127-19-40-24-141-54-160zm447-90c-74 25-60 120 24 110 80-9 41-131-24-110zm457 99c-14 91-62 231-134 291-34 28-91 64-131 82-12 5-156 40-135 47 69 23 238-82 289-132 41-40 157-244 111-288zM715 283c-16-2-144 42-164 52a409 409 0 0 0-209 222c-5 12-63 166-35 157 5-2 24-109 48-162 87-161 186-210 347-253 10-3 22-14 13-16zm28 409c-70 25-39 113 31 96 66-16 26-116-31-96zm260-12c-57-71-15-165-102-36-56 41 104 39 102 36zm-254 18c-18 10-43 15-37 50 3 22 29 35 49 31 82-17 17-98-12-81zm161-149c-1-19-45-33-58-40-57-26-36-6-34 31 0 14 3 30 6 43 6 23 6 15 26 5 9-5 58-33 60-39zM611 670c-11-20-34-92-51-92-9 0-25 35-43 110l94-18zm60-70c6-4 15-69 15-80 1-14 12-25-17-12-8 3-28 11-34 15-26 14-51 22-22 41 10 5 50 38 58 36zm281 297c9-2 32-45 35-56 16-49 2-27-37-25-55 2-50-1-36 28 5 9 30 52 38 53zm-44 44c-1-9-41-35-50-39-17-9-20-16-25-1-3 8-7 30-7 38-2 29-25 55 23 35 11-5 56-25 59-33zM748 705c-12 8-35 13-30 41 3 20 28 28 46 26 19-1 35-22 30-43-3-13-40-29-46-24zM597 827c-3-6-59-14-69-16-19-5-11 4-5 18 5 9 7 21 12 32 9 20 15 50 33 22 4-6 30-52 29-56zm88 149c5-10-6-57-7-72-1-20-35 9-47 16-32 20-34 17-3 32 11 5 49 25 57 24zm220-480 37 34c10-1 27-15 35-21 14-11 5-12-11-28-27-27-56-18-61 15zm123 422 35-67-3-1c-4-5-28-10-35-12-15-4-12 13-18 27-4 11-16 26-8 35 2 1 27 18 29 18zm-17-275 45-6-1-3c4-6-9-32-12-41-5-16-8-30-25-17-13 9-28 13-21 26l14 41zm-372 400 18-42c-2-2-29-10-38-17-15-13-23 3-30 15-13 22-9 19 10 28 6 3 35 17 40 16zM501 643c2-2 24-38 15-47-41-38-37-28-66 32 0 8 42 15 51 15zm107-137 44-20c2-6-8-34-11-40-6-10-23 3-34 9-15 7-31 9-22 20 4 5 20 29 23 31zm287-13 28-39c-13-8-20-12-37-18-20-6-21-13-27 8-6 19-15 23 3 31 8 4 28 18 33 18zM435 696c4 2 49-4 51-5 8-5 16-38 1-43-10-3-39-14-44 1-1 5-9 44-8 47zm75 264 30-37c-20-32-25-42-56-21-19 13-12 7 1 28 3 6 19 28 25 30zm-39-59 36-22c2-8-7-32-10-37-5-8-27 0-35 3-20 6-16 9-9 26 4 9 10 26 18 30zm232 162-8-50c-2-7-30-18-37 2-7 17-17 33-1 38 10 3 34 16 46 10zm-42-582 34-10c6-29 18-60-22-45-12 4-28 8-25 20 1 4 11 33 13 35zM522 593l23-36c-20-31-24-50-44-16-5 9-21 23-8 31 4 3 27 21 29 21zm289-118c-15 11 53 31 59 33 16 7 54 38 60 34 15-12-95-85-119-67zm63 568 49-23-16-30c-8-14-17 0-27 5-14 8-27 3-22 18 2 6 10 26 16 30zm158-351 41 6c2-15-5-22-8-37-5-22-2-20-22-14-12 4-32 3-28 14 3 6 10 26 17 31zM506 513c-33 8-111 193-83 187 5-1 13-46 16-54 5-19 13-33 21-50 4-10 59-86 46-83zm300-50 37 5c13-14 23-44-10-48-10-1-30-5-31 3-1 3 2 34 4 40zm13 541c11 7 126-36 106-56-7-7-46 19-56 24-19 9-61 14-50 32zm267-208c-4 2-31 86-38 101-6 12-54 80-45 78 32-4 111-196 83-179zm-511 214c3-2 23-37 22-38-2-11-20-21-35-10-11 8-38 15-27 25 8 9 28 23 40 23zm419-425 34-24c-4-9-13-21-18-28-15-22-10-14-23 0-6 6-20 20-17 27 4 6 16 23 24 25zM506 971c0-1-47-71-52-82-7-12-32-102-36-89-8 23 69 203 88 171zm475 17c-1 1-30 27-39 31-29 13-65 34-96 42-3 1-67 14-31 19 11 2 90-28 103-35 3-2 102-69 63-57zm-47 26 42-28c-10-14-12-12-26-22-15-10-12-6-25 5-11 11-21 4-11 21 5 8 11 20 20 24zM801 400c-8 11 47 17 54 18 14 3 37 15 51 20 11 5 86 53 86 53 14-19-173-112-191-91zM599 515c0-16-11-24-22-36-9-9-25 10-34 16-12 7 10 24 18 30 13 9 35-4 38-10zM487 831c8-4 4-30-16-32-13-1-44-11-40 4 2 6 11 37 15 38 1 1 39-8 41-10zm323 228 51-9c3-12-6-48-28-40-19 7-32 27-23 49zm195-551c-1 2 44 80 48 92 3 11 29 108 36 98 12-16-70-208-84-190zM781 663l37-57-7-4-40 55c-4-5 22-37 28-45 23-33 10-52-1-28l-26 49c-5 9-33 50 9 30zm-88-259c-27 5-69 28-95 41-15 7-30 14-44 23-3 2-47 39-20 28 2-1 67-44 84-53l47-21c9-4 18-5 27-7 16-3 13-13 1-11zm268 513c20 5 68-105 49-109-11-2-20 48-27 58-6 9-37 44-22 51zm34 47 29-37c-3-4-21-15-25-18-15-10-15-2-23 9-11 15-10 10-1 24 4 6 13 21 20 22zm-443-55c0-2-50-121-55-101-3 12 35 129 55 101zm460-220c11-9-34-134-53-121 5 9 56 123 53 121zm-132 61c-6 11 93 74 94 46 0-8-87-56-94-46zM584 946c4 18 94 65 105 49 6-8-91-52-105-49zm259-192c-4 6 77 69 92 50 0-1-81-67-92-50zM677 483c-20 10-39 16-59 27-6 2-63 46-25 32 12-5 52-35 85-44 23-7 11-20-1-15zm345 345 40 12 1-2c1-1 23-45-3-38-24 6-41-5-38 28zM794 513c-9 4-59 130-37 106 1 0 65-118 37-106zm-250 58c-24 22-59 140-35 116-5-8 54-142 35-116zm379 179c-6 6 72 56 83 45 6-6-69-58-83-45zm-183 88c-7 5-25 32-31 39-23 28-18 50-8 36 0 0 79-100 39-75zm17-191c6-1 22-44 28-51 7-8 9-16 14-25 3-7 7-5 8-12 5-31-14-13-19 4-1 7-21 48-25 54-4 8-14 23-6 30zm-243 53c1 6 71 39 81 39 55 2-66-43-81-39zm63-12c-7 8 82 56 88 50 9-10-85-53-88-50zm487 101c3 0 13-5 14-8-5-10-59-31-70-32-24 0 47 38 56 40zm-100-39c-3 7 78 60 81 42-15-13-57-42-81-42zm268-481c-16 19-150 134-132 132 1 0 144-127 132-132zM749 873c-6-8-16 3-18 8-3 6 0 4-6 9-4 4-5 4-7 9-2 6-10 12-14 17-3 3-7 4-7 9v16c4 9 12-11 14-13l7-7c3-5 2-8 14-18 6-5 3-4 6-10 3-5 6-1 7-9 1-11 3-6 4-11zm-471 342c6 1 131-117 131-126 0 0-129 115-131 126zm479-676c5-1 8-14 11-18 12-18 2-10 8-20l19-38c-1-2-4-10-8-9-2 1-11 19-11 22-1 11-21 38-21 47 0 6-2 12 2 16zM291 277c1 5 121 128 125 125 5-6-115-123-125-125zm935 943-126-135c-5 8 115 136 126 135zM704 968c7-4-2-3 10-14 8-7 4-8 9-13 21-20 10-12 15-19l6-6v-15c-3-5-7 2-9 4-7 6-2 4-6 10l-9 9c-3 4-1 6-5 10-7 7-3 3-7 10-2 5-6 3-7 9-1 5-2 13 3 15zm55-392c4-3 0-6 4-12 12-20 4-13 10-23l16-34c5-10 14-11 9-23-3-3-5-2-9-1-2 9 2 5-8 24l-11 22-11 22c-4 6-4 4-4 12 0 5-2 12 4 13zm80 195c-4 6 4 12 8 15 3 4 4 2 8 4 3 2 3 5 7 6 4 2 4 1 8 5 4 5 1 3 7 5s3 4 9 4l12-1c3-3-8-12-10-13-4-2-4 0-8-4-11-13-2 2-14-11-4-3-4-2-9-4l-8-5c-3-1-6-4-10-1zm-354-67c-5 6 75 43 84 34 6-1-76-38-84-34zm256 122c-8-6-13 3-18 8l-15 15c-7 7-6 10-13 16l-7 8 1 15c4 6 11-12 13-13l7-7c4-5 1-6 6-10 4-4 11-10 13-16 3-7 13-10 13-16zM456 708c2 12 58 30 67 31 25 1-56-32-67-31zm183 28c-1-2-91-57-92-38 0 0 87 46 92 38zm-96 269c-1 8 14 14 20 17 5 2 9 7 26 15l13 7c6 3 11 3 16 5 7 3 21 16 27 8-1-3-34-19-38-20-22-6-14-9-39-20-8-3-16-13-25-12zm243-560 1-13c-1-4-5-5-6-1-2 4 0 3-5 8-6 5-3 3-5 9l-4 8-3 3-1 6c-4 7-3-2-4 9-1 7-4 2-4 10v13c1 5 5 6 6 2 2-6-4-2 7-19l6-13 3-5 1-4 8-13zM681 868c4 0 6-3 12-9l17-17c5-7-6 1 9-14 5-4 4 1 9-3 0-3 1-3-5-8-5-3-7-1-10 2-24 22-12 15-18 22l-7 7c-6 7-11 6-7 20zm64 102-1-12c-9 0-20 21-22 22-7 7-2 8-9 13-7 6-6 28 0 25 3-1 5-12 13-22 11-11 2-6 9-13 3-3 3-2 5-6 3-8 0-2 5-7zm-38 19c5 0 8-6 9-10 2-6 8-8 11-12 4-7 1-6 8-13 5-4 3-1 5-7s1-2 5-6c0-8-1-20-9-7-3 4-1 4-5 9-9 9-10 8-14 16-2 5-4 4-6 8l-2 5c0 1-8 9-2 17zm-61-96 7-7c-1-3-19-19-23-23-3-4-20-24-24-21-8 9 11 23 16 28 3 4 21 22 24 23zm347-443 3 2c5-6 10-14 17-17 2 6-3 13-4 26 3 2 26-14 29-21-6-3-20 15-25 15 4-9 8-23 4-29-10 6-19 13-24 24zm-234 10c4-4 1-3 3-7l3-6c2-7 1-2 3-5 3-4 0-2 3-7 5-7 0-6 8-12 4-4 2-1 3-6 2-6 0-1 4-6 0-4 1-8-1-12-9 1-14 15-14 15l-3 3-1 5c-2 4-1 1-3 3l-7 16c-3 4-5 17 2 19zm119 365-25 25c-5 6 3 2-11 14-8 7-3 16 3 10l25-25c6-5 2-7 10-15 2-2 6-4 6-6 1-5-6-5-8-3zm208-44h20c2-6-25-18-34-27-65-13-2 12 14 27zm-59-306c3 6 12 14 20 15-8-11-21-13-8-21 4 0 6 6 15 9-2-5-9-6-12-13 10-14 11 3 21 4-5-8-7-12-16-15-6 4-16 13-20 21zm-544-32c0 7 4 9 2 15-8-2-11-11-22-10 0 3 20 21 28 18l1-13c5-2 9 3 12-1 2-5-9-28-13-29-1 9 4 13 5 18 4 13-9 2-13 2zm566 585c5-2 12-12 13-17-6-3-8-2-9 3-2 5-7 6-10 3-7-8 11-12 7-19-8-4-6 8-14 7-8-10 9-14 10-20-6-4-10 2-14 6s-11 8-6 13l12 12c4 5 1 12 11 12zm-591 4 16-1c0 8-1 5-3 14 13 0 28-6 30-14l-22 8v-11l-13-2c-1-9 14-12 9-20-11-1-1 1-8 8-4 4-10 13-9 18zm347-399c0 8 1 6-4 11l-8 7c-2 6 1 4-6 10-4 4-4 4-2 11h8c4-6 4-3 6-9 1-6 5-5 7-9 3-5-2-2 5-9 11-10 9-4 8-20-6-1-3-1-7 3-2 3-4 4-7 5zm89 206c-8-7-22 12-27 18l-6 6c-3 3 0 4-4 8-3 3-12 9-10 12 4 7 12-3 14-5 3-3 11-9 12-12 7-15 21-20 21-27zm-220 36c0-5-20-22-24-26-8-8-22-27-28-19-2 3 20 22 23 25 11 11 21 26 29 20zm-60-228h13c4-7-6 0 14-19 6-7 14-10 11-20-10-2-8 1-23 16-22 21-5 8-13 16-2 3-3 0-2 7zm-146 96c-1-10-57-27-62-27-11 4 47 23 62 27zm147 168c0-2-12-13-15-16-9-9-10-13-19-12-3 10 0 8 5 13s-1 4 7 12c10 9 11 15 19 7l1-1c3-2 1 1 2-3zM461 476c-6 3-17 0-21-2l-4 5c12 12 21 26 28 17-3-5-12-6-14-12 6-3 16 0 21-4 0-2-18-23-22-23-1 9 12 12 12 19zm128 395c-2 7 4 5 7 10 4 7-5 0 8 12 4 4 17 22 23 15 6-6-11-18-15-22-6-6-14-19-23-15zm185-498c0-8-2-5 2-10 3-2 3-5 1-9-4-1-5 2-8 4-9 10-8 6-10 12-3 11-4-4-4 19 0 4-2 11 2 12 5 1 2-4 6-8l3-5c2-6 1-1 3-5 2-3-1-2 1-5 2-4 2 0 4-5zm340 376c3 15 36 23 39 23 21 0-22-23-39-23zM596 861l11 10c6 7-4 1 8 13l11 10c5 5 6 9 13 7 7-15-15-11-19-26-2-7 0-2-10-12-4-4-10-10-14-2zM430 717s90 43 60 19c-5-4-60-34-60-19zm434 175c5 2 3 2 10-6l5-5c4-4 3-2 3-8 4-2 3-2 6-5l2-2 3-3c10-10 10-7 9-13l-8-1-4 5-2 2-21 22c-5 3-5 9-3 14zm251-116c4 1 20 2 24-1-10-6-46-26-58-26-3 9 25 17 34 27zm-735-51c8 5 25 10 36 18 5 0 16 1 20-1 1-5-53-32-56-17zm629 307 18 1v9c-5 2-6-1-8 4 3 6 9 4 12 1 7-7-1-5 7-11l-3-3-2-6-19-1c-5-13 8-7 3-16-2 0-25 9-8 22zM677 847c4 1 3 0 6-3l11-11 1-1 1-1c5-5 0-4 5-9 5-6 7-3 5-10-7-1-6-1-10 4-9 9-3-2-15 10l-1 1c-4 4-2 0-4 3-1 4 0 14 1 17zm-59-162c7 2 51 32 55 32 2-5-56-47-55-32zm108 365v7c-8 5-2 3-5 8-2 3-6 3-2 11h8l1-7c9-6 0-4 7-11l10-9c0-5 1-12-1-16-5 0-9 4-10 7 0 3 2 5-8 10zM354 725c-2 11 34 21 44 17 7-3-31-19-44-17zm218 187 19 19 8-6c0-9 0-6-13-20-11-10-15-9-14 7zm60-640c29-44-52-16 0 0zm198 520c11 6 3 6 14 9 8 3 2 8 15 9l2 4h12c2-5 1-4-2-7-8-7-3-1-9-4-4-3 2-2-6-4-3-1-1 1-3-2l-5-4c-6-5-3 2-11-8-3-3-1-3-6-2l-1 9zm-120 242h9c2-6-1-5 4-10 4-3 5-3 5-9 5-3 7-5 8-10 2-5-1-1 3-5l5-4v-9c-5-1-3-1-8 5-11 10-3 6-8 12-10 10-4 1-7 9l-2 3c-9 12-3 2-6 10-2 6-5 0-3 8zm-50-150c4-5 0-3-2-7-3-6 0-3-5-9l-13-12c-3-3-22-25-25-23-7 5 16 16 19 27 2 5 8 9 12 13 3 3 9 12 14 11zm-33-225h9c3-11-2-3 11-16 2-2 0 0 1-3l1-1v-1c1-4 6-8 10-12s3-12-1-10l-14 13c-3 4 0 3-3 7 0 2-8 8-9 10-5 4-8 5-5 13zm20 404c5 2 4-1 8 3 5 4 3 2 10 2 6 3 0 4 9 4 11 1 3 3 10 4l7 1c3 1 3 6 15 3l1-4c-4-3-3-1-7-2l-4-4c-6 0-10 2-15-2-3-4-1-2-6-2-7-1-3-1-6-3-4-3-3-1-7-1-7-1-3-1-6-4-4-2-11-1-9 5zm230-166c7 2 8 1 10-5 1-4 4-6 7-10l17-15v-5c-8-2-9 1-21 13l-9 9c-5 5-7 5-4 13zM602 626c4 1 2 1 5-2l4-4c10-11 6-3 9-12l1-2 5-5c7-7 7-4 5-10h-8c-9 15-27 19-21 35zm132 441v6c-9 6-8 10-9 13 0 1-6 4-2 15h8c2-5 1-5 1-9 1-7 1-1 4-6 2-5-3-2 8-11 1-4 2-9 0-13-4 0-6 3-10 5zm22-641h5c1-4-1-4 1-7l3-6c2-6 2-2 4-5s-1-2 2-7c4-5 7-2 7-10 0-11 6-4 3-12-5-1-3-1-5 2-10 11 0 4-7 11l-5 6c-2 5 2 1-3 6-4 4 0 2-2 7-1 0-7 3-3 15zm117 229c3-5 0-9-4-12-6-5-1 3-12-8-6-6-13-12-18-19h-8c-2 6 2 7 7 11 5 5 0 2 6 4 8 3 22 25 29 24zm-423 359c-8 2-8-7-13-8-2 9 12 17 17 10 8-9-12-18 0-22 4-1 6 4 9 4 1-4 3-1 2-5-6-5-17-7-20 2-5 10 11 10 5 19zm264 32c-1 6-2 9 4 10l6-10c1-4 4-5 7-8 3-5-2-7 13-17 2-18-6-6-10-2l-5 4c-4 4-2 0-3 6-2 8-1 0-4 6-2 6 3 3-8 11zm-55-410c-5 3-8 8-12 12-9 7 0 2-6 9 0 0-5 3-2 6 4 4 12-9 19-15l7-6c1-6-1-5 4-9 4-4 5-2 4-8-7-3-13 2-14 11zm235-6c1-3 1-10-1-13-6-3-2 1-9-5l-15-16c-5-3-7 3-5 7l22 22c4 5 2 7 8 5zM559 929l8 7c2 1 1 1 2 3 4 0 9 1 13-1 2-8-1-8-11-18-2-3-4-6-9-4-4 1-3 9-3 13zm34-328c0 4-1 9 1 12 4 0 5-2 8-5 8-9 11-9 14-17 2-6 4 0 3-8-10-4-13 8-26 18zm84 104c0-10-35-27-42-26 0 6 37 26 42 26zm-66-71c4 0 14-12 18-15 5-5 15-12 11-19-5-1-6 2-10 6l-4 3-4 5c-5 6-17 13-11 20zm567 117c-2 9 22 13 24 15 7 6 11-3 10-8-5 0-23-11-34-7zM885 905c10 3 16-10 27-20 4-3 5-5 3-10-5-1-10 7-17 13-6 6-14 12-13 17zM299 737c7 3 25 6 33 6 2-10-38-23-33-6zm286-136c5 1 2 1 10-7 7-7 7-3 8-13 4-2 5-1 3-6-8-3-10 3-15 8-7 6-9 6-6 18zm596 171c4-12-28-23-33-22-4 7 28 23 33 22zM902 618c2-6 2-8-2-11l-7-7c-4-4-12-13-16-13-4 6 0 8 9 18 11 11 11 14 16 13zm-5 295c8 3 9-1 14-6s8-5 9-13c4-2 5-1 3-7-12-3-14 10-15 11l-3 4-4 3c-4 4-6 2-4 8zm-232-58c0-15 2-10-5-17l-4-5-6-1c-3-2-1-3-6-3-5 7 3 11 7 15 3 4 8 12 14 11zm177-244 28 28c3 3 6 8 11 8 4-5-2-6-6-11l-29-29c-3 2-3 1-4 4zm13-3c2 3 6 4 7 7 4 6-2 2 6 9 5 5 9 13 18 10 1-5-3-6-6-9l-8-8c-7-7-11-14-16-13l-1 4zm-169 88c2-8-36-29-35-18 0 1 30 19 35 18zm145 118c6 0 4-2 7 2 2 1 0 3 6 1l1-9c-4-2-2 1-5-2l-4-5c-4-4-1 0-6-2s0-2-4-4c-4 0-8 4 0 12l5 7zm91 116c6 2 3 1 11-7 5-5 9-7 7-14-8-3-9 1-14 5-6 6-5 5-4 16zm-12-8c5 1 6-3 13-10 5-5 11-8 8-16-4-2-8 4-13 10-6 5-10 6-8 16zM668 725c-7-8-59-43-66-42 0 12 82 54 66 42zm193-61 4-1c1-6-2-5-12-16-2-2-20-22-19-11 0 2 10 10 12 12l15 16zm-134 454c9 2 8 0 10-6v-1c1-3 5-5 7-7l1-12-6-1c-2 11-1 6-7 13-3 4 0 3-3 7-2 2-4-1-2 7zm198-533c2-1 7-6 7-8l-10-11c-4 0-9-1-12 1-1 5-2 2 6 9l9 9zm-357-18c-4 15 9 9 9 9 2-4 2-2 1-7l8-6 1-5c-10-4-11 2-16 7l-3 2zm347 38v-5c-11-7-5-7-13-9-3-1-2 0-7-6-2-2-5-5-7 0-1 3 2 4 5 6l6 6c8 7 8 11 16 8zM358 742c2-9-21-18-25-14-5 5 20 14 25 14zm397-417v14c5 0 5-1 7-4 4-4 3 0 3-8l5-2c0-16-5-8-9-4l-1 1c-3 3-1 1-5 3zm54 330v5c-9 8-9 7-7 12 4 1 2 2 8-5 6-6 4-3 6-11 5-2 1-1 5-4 3-3 3 0 2-6-4-2-4 0-7 3-2 2-3 4-7 6zm-49-308-1 5s-8 2-3 11l4 1c2-4 1-4 1-8l4-2 1-6 8-6v-5c-7-1-4 0-8 3l-6 7zm137 228c-1 6-1 2 6 9 5 5 2 4 10 5 2 4 1 5 6 3 2-4 1-4-2-6-6-4-5-4-8-8-2-1-6-7-12-3zm34 363h9v-7c6-2 2 0 6-4 3-3 3 0 2-6l-8-1c-7 11-12 7-9 18zM576 584c7 3 9-1 13-5s8-6 5-13c-6-2-5 3-16 12-2 2-3 2-2 6zm279 253-7 1-1 6c-4 3-5 1-4 7 5 1 5-1 7-4l11-11c3-2 5-3 4-7-5-1-3-2-9 4l-1 4zm-125 292v10c5 0 4 0 6-2l9-8v-8c-7-2-6 2-11 6l-4 2zm510-368-27-13c-1 11 19 15 27 13zm37-7c-11-7-28-8-42-4-1 11 34 8 42 4zm-539 395h-4c-1 5-1 6 1 11h9c2-5 2-11 0-15-5-1-5-1-6 4zM552 947c4 0 9 1 13-1 1-5 1-1-6-9-5-5-1-4-7-4-2 4-1 10 0 14zm17-379v7h8c1-9-1-5 5-10 3-4 3-1 3-6-7-3-11 5-16 9zm-18-26c0 4-1 5 1 8 4 2 9 3 10-3 0-6 1-10-5-10l-6 5zm10 22c6-1 1-1 13-10v-4l-9-1-2 3c0 1-7 4-2 12zm290 270c4 0 3-7 2-10-5-1-6-1-10 1-1 3-2 6 0 9 3 2 6 2 8 0zm-547-88c0-5-28-15-31-15-1 11 22 15 31 15zm225 251c3 4 1 5 7 4 1-6 1-4-3-7l-2-2-2-2h-1c-3-4-1-3-6-3-1 9-1 10 7 10zm414-59v8c6 3 2 0 10-4v-9h-5c-4 6-1 1-5 5zM686 684c1-5-13-14-15-11-4 3 9 13 15 11zm52 465c-2 2-3 1-3 5s1 5 4 5c7 0 6-8 5-12-4-1-5 1-5 1l-1 1zm194-581h8c1-8-1-6-7-7-2-4-1-4-7-3-1 6 0 2 6 10zm7-9h9c1-6 1-4-2-7l-3-3c-6-1-5 6-4 10zM539 946c-1 6 0 3 3 6 2 2 2 4 6 3 4-8-2-13-9-9zm312-112c2-4 2-4 1-8-4-1-5-2-8 0-3 9 1 7 7 8zm-37-166v4h4c7-9 6-3 5-10-7-1-2 0-7 4l-2 2zm25-9h9c3-7-5-6-9-5v5zm117 292h5v-9c-7-3-7 3-5 9zM755 289l6-1v-9h-5l-1 10zm0 25 6-1c1-3 1-6-1-9h-4l-1 10zm5-14c3 2 2 2 5 1v-5l-5-1v5zM530 964h6v-6h-5l-1 6zm-26-633c8-53-54 6 0 0zm380-51c51-15-29-46 0 0zm117 48c53-3-17-52 0 0zm168 164c51 16 1-54 0 0zm45 110c45 29 16-51 0 0zm7 267c16 51 46-29 0 0zm-47 121c4 53 51-18 0 0zm-160 176c-13 52 55 0 0 0zm-106 41c-23 48 53 11 0 0zm-308-8c-53 11 24 49 0 0zm-96-47c-53 1 15 52 0 0zM331 992c-50-17-3 54 0 0zm-52-118c-37-38-27 47 0 0zm1-253c-20-50-44 32 0 0zm53-119c-6-53-50 20 0 0z"/><path fill="#030303" d="M1466 799v-6l-59 4-1-46 45-2 1-7-46 3-1-37h61v-7h-67l3 102z"/><path fill="#030303" d="M780 15h-2l-5 87-47-82-7 2 3 102h4l-2-88 51 83 4 1z"/><path fill="#030303" d="M16 693v6l45 81 14-42 24 41 42-92-5-2-37 79-25-39-15 36z"/><path fill="#030303" d="M726 1464c-5-6-2-17-6-17-9 50 81 43 69-4-5-18-44-16-56-38-8-33 35-20 46-14-15-20-59-16-52 14 6 30 70 24 56 54a33 33 0 0 1-57 5z"/></svg>